<?xml version="1.0" encoding="UTF-8" standalone="no"?>
<svg
   xmlns:dc="http://purl.org/dc/elements/1.1/"
   xmlns:cc="http://creativecommons.org/ns#"
   xmlns:rdf="http://www.w3.org/1999/02/22-rdf-syntax-ns#"
   xmlns:svg="http://www.w3.org/2000/svg"
   xmlns="http://www.w3.org/2000/svg"
   xmlns:sodipodi="http://sodipodi.sourceforge.net/DTD/sodipodi-0.dtd"
   xmlns:inkscape="http://www.inkscape.org/namespaces/inkscape"
   version="1.1"
   width="18.5in"
   height="12.5in"
   viewBox=" 0 0 1665 1125"
   id="svg2"
   inkscape:version="0.48.5 r10040"
   sodipodi:docname="redstone ore block.svg">
  <metadata
     id="metadata32">
    <rdf:RDF>
      <cc:Work
         rdf:about="">
        <dc:format>image/svg+xml</dc:format>
        <dc:type
           rdf:resource="http://purl.org/dc/dcmitype/StillImage" />
      </cc:Work>
    </rdf:RDF>
  </metadata>
  <defs
     id="defs30" />
  <sodipodi:namedview
     pagecolor="#ffffff"
     bordercolor="#666666"
     borderopacity="1"
     objecttolerance="10"
     gridtolerance="10"
     guidetolerance="10"
     inkscape:pageopacity="0"
     inkscape:pageshadow="2"
     inkscape:window-width="1811"
     inkscape:window-height="1100"
     id="namedview28"
     showgrid="false"
     inkscape:zoom="0.55048947"
     inkscape:cx="815.90384"
     inkscape:cy="325.20545"
     inkscape:window-x="533"
     inkscape:window-y="125"
     inkscape:window-maximized="0"
     inkscape:current-layer="svg2" />
  <!-- Front-->
  <g
     transform="translate(22.5, 22.5) "
     id="g4">
    <polygon
       style="stroke:#000000; fill:none; stroke-width:0.9"
       points="0, 0 112.5, 0 112.5, 21.24 225, 21.24 225, 0 315, 0 315, 21.24 427.5, 21.24 427.5, 0 540, 0 540, 112.5 518.76, 112.5 518.76, 225 540, 225 540, 315 518.76, 315 518.76, 427.5 540, 427.5 540, 540 427.5, 540 427.5, 518.76 315, 518.76 315, 540 225, 540 225, 518.76 112.5, 518.76 112.5, 540 0, 540 0, 427.5 21.24, 427.5 21.24, 315 0, 315 0, 225 21.24, 225 21.24, 112.5 0, 112.5 "
       id="polygon6" />
  </g>
  <!-- Back-->
  <g
     transform="translate(562.5, 22.5) "
     id="g8">
    <polygon
       style="stroke:#000000; fill:none; stroke-width:0.9"
       points="0, 0 112.5, 0 112.5, 21.24 225, 21.24 225, 0 315, 0 315, 21.24 427.5, 21.24 427.5, 0 540, 0 540, 112.5 518.76, 112.5 518.76, 225 540, 225 540, 315 518.76, 315 518.76, 427.5 540, 427.5 540, 540 427.5, 540 427.5, 518.76 315, 518.76 315, 540 225, 540 225, 518.76 112.5, 518.76 112.5, 540 0, 540 0, 427.5 21.24, 427.5 21.24, 315 0, 315 0, 225 21.24, 225 21.24, 112.5 0, 112.5 "
       id="polygon10" />
  </g>
  <!-- Left-->
  <g
     transform="translate(1102.5, 22.5) "
     id="g12">
    <polygon
       style="stroke:#000000; fill:none; stroke-width:0.9"
       points="21.24, 0 112.5, 0 112.5, 21.24 225, 21.24 225, 0 315, 0 315, 21.24 427.5, 21.24 427.5, 0 518.76, 0 518.76, 112.5 540, 112.5 540, 225 518.76, 225 518.76, 315 540, 315 540, 427.5 518.76, 427.5 518.76, 540 427.5, 540 427.5, 518.76 315, 518.76 315, 540 225, 540 225, 518.76 112.5, 518.76 112.5, 540 21.24, 540 21.24, 427.5 0, 427.5 0, 315 21.24, 315 21.24, 225 0, 225 0, 112.5 21.24, 112.5 "
       id="polygon14" />
  </g>
  <!-- Right-->
  <g
     transform="translate(1102.5, 562.5) "
     id="g16">
    <polygon
       style="stroke:#000000; fill:none; stroke-width:0.9"
       points="21.24, 0 112.5, 0 112.5, 21.24 225, 21.24 225, 0 315, 0 315, 21.24 427.5, 21.24 427.5, 0 518.76, 0 518.76, 112.5 540, 112.5 540, 225 518.76, 225 518.76, 315 540, 315 540, 427.5 518.76, 427.5 518.76, 540 427.5, 540 427.5, 518.76 315, 518.76 315, 540 225, 540 225, 518.76 112.5, 518.76 112.5, 540 21.24, 540 21.24, 427.5 0, 427.5 0, 315 21.24, 315 21.24, 225 0, 225 0, 112.5 21.24, 112.5 "
       id="polygon18" />
  </g>
  <!-- Top-->
  <g
     transform="translate(22.5, 562.5) "
     id="g20">
    <polygon
       style="stroke:#000000; fill:none; stroke-width:0.9"
       points="21.24, 21.24 112.5, 21.24 112.5, 0 225, 0 225, 21.24 315, 21.24 315, 0 427.5, 0 427.5, 21.24 518.76, 21.24 518.76, 112.5 540, 112.5 540, 225 518.76, 225 518.76, 315 540, 315 540, 427.5 518.76, 427.5 518.76, 518.76 427.5, 518.76 427.5, 540 315, 540 315, 518.76 225, 518.76 225, 540 112.5, 540 112.5, 518.76 21.24, 518.76 21.24, 427.5 0, 427.5 0, 315 21.24, 315 21.24, 225 0, 225 0, 112.5 21.24, 112.5 "
       id="polygon22" />
  </g>
  <!-- Bottom-->
  <g
     transform="translate(562.5, 562.5) "
     id="g24">
    <polygon
       style="stroke:#000000; fill:none; stroke-width:0.9"
       points="21.24, 21.24 112.5, 21.24 112.5, 0 225, 0 225, 21.24 315, 21.24 315, 0 427.5, 0 427.5, 21.24 518.76, 21.24 518.76, 112.5 540, 112.5 540, 225 518.76, 225 518.76, 315 540, 315 540, 427.5 518.76, 427.5 518.76, 518.76 427.5, 518.76 427.5, 540 315, 540 315, 518.76 225, 518.76 225, 540 112.5, 540 112.5, 518.76 21.24, 518.76 21.24, 427.5 0, 427.5 0, 315 21.24, 315 21.24, 225 0, 225 0, 112.5 21.24, 112.5 "
       id="polygon26" />
  </g>
  <g
     id="g4360">
    <rect
       style="fill:none;fill-opacity:1;fill-rule:evenodd;stroke:#ff0000;stroke-width:0.10000000000000001;stroke-miterlimit:4;stroke-dasharray:none"
       id="rect3832"
       width="33.75"
       height="33.75"
       x="156.83911"
       y="90.216415" />
    <rect
       y="90.216415"
       x="426.83908"
       height="33.75"
       width="67.499992"
       id="rect3842"
       style="fill:none;fill-opacity:1;fill-rule:evenodd;stroke:#ff0000;stroke-width:0.10000000000000001;stroke-miterlimit:4;stroke-dasharray:none" />
    <rect
       style="fill:none;fill-opacity:1;fill-rule:evenodd;stroke:#ff0000;stroke-width:0.10000000000000001;stroke-miterlimit:4;stroke-dasharray:none"
       id="rect3868"
       width="67.499992"
       height="33.75"
       x="258.08911"
       y="123.96638" />
    <path
       id="rect3894"
       d="m 190.59375,191.46875 0,33.75 -67.5,0 0,33.75 168.75,0 0,-33.75 -33.75,0 0,-33.75 -67.5,0 z"
       style="fill:none;fill-opacity:1;fill-rule:evenodd;stroke:#ff0000;stroke-width:0.10000000000000001;stroke-miterlimit:4;stroke-dasharray:none"
       inkscape:connector-curvature="0" />
    <path
       id="rect3902"
       d="m 359.34375,191.46875 0,33.75 0,33.75 67.5,0 0,-33.75 0,-33.75 -67.5,0 z"
       style="fill:none;fill-opacity:1;fill-rule:evenodd;stroke:#ff0000;stroke-width:0.10000000000000001;stroke-miterlimit:4;stroke-dasharray:none"
       inkscape:connector-curvature="0" />
    <path
       id="rect3934"
       d="m 291.84375,292.71875 0,33.75 -33.75,0 0,33.75 135,0 0,-33.75 -33.75,0 0,-33.75 -67.5,0 z"
       style="fill:none;fill-opacity:1;fill-rule:evenodd;stroke:#ff0000;stroke-width:0.10000000000000001;stroke-miterlimit:4;stroke-dasharray:none"
       inkscape:connector-curvature="0" />
    <rect
       y="292.71643"
       x="55.589119"
       height="33.75"
       width="67.499992"
       id="rect3944"
       style="fill:none;fill-opacity:1;fill-rule:evenodd;stroke:#ff0000;stroke-width:0.10000000000000001;stroke-miterlimit:4;stroke-dasharray:none" />
    <rect
       y="360.21637"
       x="156.83911"
       height="33.75"
       width="33.75"
       id="rect3968"
       style="fill:none;fill-opacity:1;fill-rule:evenodd;stroke:#ff0000;stroke-width:0.10000000000000001;stroke-miterlimit:4;stroke-dasharray:none" />
    <path
       id="rect3990"
       d="m 393.09375,393.96875 0,33.75 -101.25,0 0,33.75 33.75,0 0,33.75 67.5,0 0,-33.75 101.25,0 0,-33.75 -33.75,0 0,-33.75 -67.5,0 z"
       style="fill:none;fill-opacity:1;fill-rule:evenodd;stroke:#ff0000;stroke-width:0.10000000000000001;stroke-miterlimit:4;stroke-dasharray:none"
       inkscape:connector-curvature="0" />
    <rect
       style="fill:none;fill-opacity:1;fill-rule:evenodd;stroke:#ff0000;stroke-width:0.10000000000000001;stroke-miterlimit:4;stroke-dasharray:none"
       id="rect4014"
       width="67.499992"
       height="33.75"
       x="123.08911"
       y="461.4664" />
  </g>
  <g
     id="g4373"
     transform="translate(541.33643,1.8165652)">
    <rect
       y="90.216415"
       x="156.83911"
       height="33.75"
       width="33.75"
       id="rect4375"
       style="fill:none;stroke:#ff0000;stroke-width:0.1;stroke-miterlimit:4;stroke-dasharray:none" />
    <rect
       style="fill:none;stroke:#ff0000;stroke-width:0.1;stroke-miterlimit:4;stroke-dasharray:none"
       id="rect4377"
       width="67.499992"
       height="33.75"
       x="426.83908"
       y="90.216415" />
    <rect
       y="123.96638"
       x="258.08911"
       height="33.75"
       width="67.499992"
       id="rect4379"
       style="fill:none;stroke:#ff0000;stroke-width:0.1;stroke-miterlimit:4;stroke-dasharray:none" />
    <path
       inkscape:connector-curvature="0"
       style="fill:none;stroke:#ff0000;stroke-width:0.1;stroke-miterlimit:4;stroke-dasharray:none"
       d="m 190.59375,191.46875 0,33.75 -67.5,0 0,33.75 168.75,0 0,-33.75 -33.75,0 0,-33.75 -67.5,0 z"
       id="path4381" />
    <path
       inkscape:connector-curvature="0"
       style="fill:none;stroke:#ff0000;stroke-width:0.1;stroke-miterlimit:4;stroke-dasharray:none"
       d="m 359.34375,191.46875 0,33.75 0,33.75 67.5,0 0,-33.75 0,-33.75 -67.5,0 z"
       id="path4383" />
    <path
       inkscape:connector-curvature="0"
       style="fill:none;stroke:#ff0000;stroke-width:0.1;stroke-miterlimit:4;stroke-dasharray:none"
       d="m 291.84375,292.71875 0,33.75 -33.75,0 0,33.75 135,0 0,-33.75 -33.75,0 0,-33.75 -67.5,0 z"
       id="path4385" />
    <rect
       style="fill:none;stroke:#ff0000;stroke-width:0.1;stroke-miterlimit:4;stroke-dasharray:none"
       id="rect4387"
       width="67.499992"
       height="33.75"
       x="55.589119"
       y="292.71643" />
    <rect
       style="fill:none;stroke:#ff0000;stroke-width:0.1;stroke-miterlimit:4;stroke-dasharray:none"
       id="rect4389"
       width="33.75"
       height="33.75"
       x="156.83911"
       y="360.21637" />
    <path
       inkscape:connector-curvature="0"
       style="fill:none;stroke:#ff0000;stroke-width:0.1;stroke-miterlimit:4;stroke-dasharray:none"
       d="m 393.09375,393.96875 0,33.75 -101.25,0 0,33.75 33.75,0 0,33.75 67.5,0 0,-33.75 101.25,0 0,-33.75 -33.75,0 0,-33.75 -67.5,0 z"
       id="path4391" />
    <rect
       y="461.4664"
       x="123.08911"
       height="33.75"
       width="67.499992"
       id="rect4393"
       style="fill:none;stroke:#ff0000;stroke-width:0.1;stroke-miterlimit:4;stroke-dasharray:none" />
  </g>
  <g
     transform="translate(1101.0219,0)"
     id="g4397">
    <rect
       style="fill:none;stroke:#ff0000;stroke-width:0.1;stroke-miterlimit:4;stroke-dasharray:none"
       id="rect4399"
       width="33.75"
       height="33.75"
       x="156.83911"
       y="90.216415" />
    <rect
       y="90.216415"
       x="426.83908"
       height="33.75"
       width="67.499992"
       id="rect4401"
       style="fill:none;stroke:#ff0000;stroke-width:0.1;stroke-miterlimit:4;stroke-dasharray:none" />
    <rect
       style="fill:none;stroke:#ff0000;stroke-width:0.1;stroke-miterlimit:4;stroke-dasharray:none"
       id="rect4403"
       width="67.499992"
       height="33.75"
       x="258.08911"
       y="123.96638" />
    <path
       id="path4405"
       d="m 190.59375,191.46875 0,33.75 -67.5,0 0,33.75 168.75,0 0,-33.75 -33.75,0 0,-33.75 -67.5,0 z"
       style="fill:none;stroke:#ff0000;stroke-width:0.1;stroke-miterlimit:4;stroke-dasharray:none"
       inkscape:connector-curvature="0" />
    <path
       id="path4407"
       d="m 359.34375,191.46875 0,33.75 0,33.75 67.5,0 0,-33.75 0,-33.75 -67.5,0 z"
       style="fill:none;stroke:#ff0000;stroke-width:0.1;stroke-miterlimit:4;stroke-dasharray:none"
       inkscape:connector-curvature="0" />
    <path
       id="path4409"
       d="m 291.84375,292.71875 0,33.75 -33.75,0 0,33.75 135,0 0,-33.75 -33.75,0 0,-33.75 -67.5,0 z"
       style="fill:none;stroke:#ff0000;stroke-width:0.1;stroke-miterlimit:4;stroke-dasharray:none"
       inkscape:connector-curvature="0" />
    <rect
       y="292.71643"
       x="55.589119"
       height="33.75"
       width="67.499992"
       id="rect4411"
       style="fill:none;stroke:#ff0000;stroke-width:0.1;stroke-miterlimit:4;stroke-dasharray:none" />
    <rect
       y="360.21637"
       x="156.83911"
       height="33.75"
       width="33.75"
       id="rect4413"
       style="fill:none;stroke:#ff0000;stroke-width:0.1;stroke-miterlimit:4;stroke-dasharray:none" />
    <path
       id="path4415"
       d="m 393.09375,393.96875 0,33.75 -101.25,0 0,33.75 33.75,0 0,33.75 67.5,0 0,-33.75 101.25,0 0,-33.75 -33.75,0 0,-33.75 -67.5,0 z"
       style="fill:none;stroke:#ff0000;stroke-width:0.1;stroke-miterlimit:4;stroke-dasharray:none"
       inkscape:connector-curvature="0" />
    <rect
       style="fill:none;stroke:#ff0000;stroke-width:0.1;stroke-miterlimit:4;stroke-dasharray:none"
       id="rect4417"
       width="67.499992"
       height="33.75"
       x="123.08911"
       y="461.4664" />
  </g>
  <g
     id="g4421"
     transform="translate(1102.8385,539.51986)">
    <rect
       y="90.216415"
       x="156.83911"
       height="33.75"
       width="33.75"
       id="rect4423"
       style="fill:none;stroke:#ff0000;stroke-width:0.1;stroke-miterlimit:4;stroke-dasharray:none" />
    <rect
       style="fill:none;stroke:#ff0000;stroke-width:0.1;stroke-miterlimit:4;stroke-dasharray:none"
       id="rect4425"
       width="67.499992"
       height="33.75"
       x="426.83908"
       y="90.216415" />
    <rect
       y="123.96638"
       x="258.08911"
       height="33.75"
       width="67.499992"
       id="rect4427"
       style="fill:none;stroke:#ff0000;stroke-width:0.1;stroke-miterlimit:4;stroke-dasharray:none" />
    <path
       inkscape:connector-curvature="0"
       style="fill:none;stroke:#ff0000;stroke-width:0.1;stroke-miterlimit:4;stroke-dasharray:none"
       d="m 190.59375,191.46875 0,33.75 -67.5,0 0,33.75 168.75,0 0,-33.75 -33.75,0 0,-33.75 -67.5,0 z"
       id="path4429" />
    <path
       inkscape:connector-curvature="0"
       style="fill:none;stroke:#ff0000;stroke-width:0.1;stroke-miterlimit:4;stroke-dasharray:none"
       d="m 359.34375,191.46875 0,33.75 0,33.75 67.5,0 0,-33.75 0,-33.75 -67.5,0 z"
       id="path4431" />
    <path
       inkscape:connector-curvature="0"
       style="fill:none;stroke:#ff0000;stroke-width:0.1;stroke-miterlimit:4;stroke-dasharray:none"
       d="m 291.84375,292.71875 0,33.75 -33.75,0 0,33.75 135,0 0,-33.75 -33.75,0 0,-33.75 -67.5,0 z"
       id="path4433" />
    <rect
       style="fill:none;stroke:#ff0000;stroke-width:0.1;stroke-miterlimit:4;stroke-dasharray:none"
       id="rect4435"
       width="67.499992"
       height="33.75"
       x="55.589119"
       y="292.71643" />
    <rect
       style="fill:none;stroke:#ff0000;stroke-width:0.1;stroke-miterlimit:4;stroke-dasharray:none"
       id="rect4437"
       width="33.75"
       height="33.75"
       x="156.83911"
       y="360.21637" />
    <path
       inkscape:connector-curvature="0"
       style="fill:none;stroke:#ff0000;stroke-width:0.1;stroke-miterlimit:4;stroke-dasharray:none"
       d="m 393.09375,393.96875 0,33.75 -101.25,0 0,33.75 33.75,0 0,33.75 67.5,0 0,-33.75 101.25,0 0,-33.75 -33.75,0 0,-33.75 -67.5,0 z"
       id="path4439" />
    <rect
       y="461.4664"
       x="123.08911"
       height="33.75"
       width="67.499992"
       id="rect4441"
       style="fill:none;stroke:#ff0000;stroke-width:0.1;stroke-miterlimit:4;stroke-dasharray:none" />
  </g>
  <g
     transform="translate(561.50207,561.31864)"
     id="g4445">
    <rect
       style="fill:none;stroke:#ff0000;stroke-width:0.1;stroke-miterlimit:4;stroke-dasharray:none"
       id="rect4447"
       width="33.75"
       height="33.75"
       x="156.83911"
       y="90.216415" />
    <rect
       y="90.216415"
       x="426.83908"
       height="33.75"
       width="67.499992"
       id="rect4449"
       style="fill:none;stroke:#ff0000;stroke-width:0.1;stroke-miterlimit:4;stroke-dasharray:none" />
    <rect
       style="fill:none;stroke:#ff0000;stroke-width:0.1;stroke-miterlimit:4;stroke-dasharray:none"
       id="rect4451"
       width="67.499992"
       height="33.75"
       x="258.08911"
       y="123.96638" />
    <path
       id="path4453"
       d="m 190.59375,191.46875 0,33.75 -67.5,0 0,33.75 168.75,0 0,-33.75 -33.75,0 0,-33.75 -67.5,0 z"
       style="fill:none;stroke:#ff0000;stroke-width:0.1;stroke-miterlimit:4;stroke-dasharray:none"
       inkscape:connector-curvature="0" />
    <path
       id="path4455"
       d="m 359.34375,191.46875 0,33.75 0,33.75 67.5,0 0,-33.75 0,-33.75 -67.5,0 z"
       style="fill:none;stroke:#ff0000;stroke-width:0.1;stroke-miterlimit:4;stroke-dasharray:none"
       inkscape:connector-curvature="0" />
    <path
       id="path4457"
       d="m 291.84375,292.71875 0,33.75 -33.75,0 0,33.75 135,0 0,-33.75 -33.75,0 0,-33.75 -67.5,0 z"
       style="fill:none;stroke:#ff0000;stroke-width:0.1;stroke-miterlimit:4;stroke-dasharray:none"
       inkscape:connector-curvature="0" />
    <rect
       y="292.71643"
       x="55.589119"
       height="33.75"
       width="67.499992"
       id="rect4459"
       style="fill:none;stroke:#ff0000;stroke-width:0.1;stroke-miterlimit:4;stroke-dasharray:none" />
    <rect
       y="360.21637"
       x="156.83911"
       height="33.75"
       width="33.75"
       id="rect4461"
       style="fill:none;stroke:#ff0000;stroke-width:0.1;stroke-miterlimit:4;stroke-dasharray:none" />
    <path
       id="path4463"
       d="m 393.09375,393.96875 0,33.75 -101.25,0 0,33.75 33.75,0 0,33.75 67.5,0 0,-33.75 101.25,0 0,-33.75 -33.75,0 0,-33.75 -67.5,0 z"
       style="fill:none;stroke:#ff0000;stroke-width:0.1;stroke-miterlimit:4;stroke-dasharray:none"
       inkscape:connector-curvature="0" />
    <rect
       style="fill:none;stroke:#ff0000;stroke-width:0.1;stroke-miterlimit:4;stroke-dasharray:none"
       id="rect4465"
       width="67.499992"
       height="33.75"
       x="123.08911"
       y="461.4664" />
  </g>
  <g
     id="g4469"
     transform="translate(21.982208,561.31864)">
    <rect
       y="90.216415"
       x="156.83911"
       height="33.75"
       width="33.75"
       id="rect4471"
       style="fill:none;stroke:#ff0000;stroke-width:0.1;stroke-miterlimit:4;stroke-dasharray:none" />
    <rect
       style="fill:none;stroke:#ff0000;stroke-width:0.1;stroke-miterlimit:4;stroke-dasharray:none"
       id="rect4473"
       width="67.499992"
       height="33.75"
       x="426.83908"
       y="90.216415" />
    <rect
       y="123.96638"
       x="258.08911"
       height="33.75"
       width="67.499992"
       id="rect4475"
       style="fill:none;stroke:#ff0000;stroke-width:0.1;stroke-miterlimit:4;stroke-dasharray:none" />
    <path
       inkscape:connector-curvature="0"
       style="fill:none;stroke:#ff0000;stroke-width:0.1;stroke-miterlimit:4;stroke-dasharray:none"
       d="m 190.59375,191.46875 0,33.75 -67.5,0 0,33.75 168.75,0 0,-33.75 -33.75,0 0,-33.75 -67.5,0 z"
       id="path4477" />
    <path
       inkscape:connector-curvature="0"
       style="fill:none;stroke:#ff0000;stroke-width:0.1;stroke-miterlimit:4;stroke-dasharray:none"
       d="m 359.34375,191.46875 0,33.75 0,33.75 67.5,0 0,-33.75 0,-33.75 -67.5,0 z"
       id="path4479" />
    <path
       inkscape:connector-curvature="0"
       style="fill:none;stroke:#ff0000;stroke-width:0.1;stroke-miterlimit:4;stroke-dasharray:none"
       d="m 291.84375,292.71875 0,33.75 -33.75,0 0,33.75 135,0 0,-33.75 -33.75,0 0,-33.75 -67.5,0 z"
       id="path4481" />
    <rect
       style="fill:none;stroke:#ff0000;stroke-width:0.1;stroke-miterlimit:4;stroke-dasharray:none"
       id="rect4483"
       width="67.499992"
       height="33.75"
       x="55.589119"
       y="292.71643" />
    <rect
       style="fill:none;stroke:#ff0000;stroke-width:0.1;stroke-miterlimit:4;stroke-dasharray:none"
       id="rect4485"
       width="33.75"
       height="33.75"
       x="156.83911"
       y="360.21637" />
    <path
       inkscape:connector-curvature="0"
       style="fill:none;stroke:#ff0000;stroke-width:0.1;stroke-miterlimit:4;stroke-dasharray:none"
       d="m 393.09375,393.96875 0,33.75 -101.25,0 0,33.75 33.75,0 0,33.75 67.5,0 0,-33.75 101.25,0 0,-33.75 -33.75,0 0,-33.75 -67.5,0 z"
       id="path4487" />
    <rect
       y="461.4664"
       x="123.08911"
       height="33.75"
       width="67.499992"
       id="rect4489"
       style="fill:none;stroke:#ff0000;stroke-width:0.1;stroke-miterlimit:4;stroke-dasharray:none" />
  </g>
</svg>
