<?xml version="1.0" encoding="UTF-8" standalone="no"?>
<!-- Created with Inkscape (http://www.inkscape.org/) -->

<svg
   xmlns:dc="http://purl.org/dc/elements/1.1/"
   xmlns:cc="http://creativecommons.org/ns#"
   xmlns:rdf="http://www.w3.org/1999/02/22-rdf-syntax-ns#"
   xmlns:svg="http://www.w3.org/2000/svg"
   xmlns="http://www.w3.org/2000/svg"
   xmlns:sodipodi="http://sodipodi.sourceforge.net/DTD/sodipodi-0.dtd"
   xmlns:inkscape="http://www.inkscape.org/namespaces/inkscape"
   width="11in"
   height="8.5in"
   viewBox="0 0 279.4 215.9"
   version="1.1"
   id="svg1785"
   inkscape:version="0.92.2 5c3e80d, 2017-08-06"
   sodipodi:docname="theosign-base.svg">
  <defs
     id="defs1779" />
  <sodipodi:namedview
     id="base"
     pagecolor="#ffffff"
     bordercolor="#666666"
     borderopacity="1.0"
     inkscape:pageopacity="0.0"
     inkscape:pageshadow="2"
     inkscape:zoom="1"
     inkscape:cx="424.69503"
     inkscape:cy="593.79806"
     inkscape:document-units="mm"
     inkscape:current-layer="layer1"
     showgrid="false"
     units="in"
     inkscape:window-width="1415"
     inkscape:window-height="855"
     inkscape:window-x="0"
     inkscape:window-y="1"
     inkscape:window-maximized="1" />
  <metadata
     id="metadata1782">
    <rdf:RDF>
      <cc:Work
         rdf:about="">
        <dc:format>image/svg+xml</dc:format>
        <dc:type
           rdf:resource="http://purl.org/dc/dcmitype/StillImage" />
        <dc:title />
      </cc:Work>
    </rdf:RDF>
  </metadata>
  <g
     inkscape:label="Layer 1"
     inkscape:groupmode="layer"
     id="layer1"
     transform="translate(0,-81.1)">
    <g
       id="g2384"
       transform="translate(-10.31875,-9.7895833)">
      <rect
         y="96.044991"
         x="15.710076"
         height="59.135124"
         width="199.13513"
         id="rect2330"
         style="opacity:1;fill:none;fill-opacity:1;stroke:#ff0000;stroke-width:0.5;stroke-miterlimit:4;stroke-dasharray:none;stroke-opacity:1" />
      <path
         inkscape:connector-curvature="0"
         d="M 40.801896,121.1368 H 189.75339 v 8.95151 H 40.801896 Z"
         style="opacity:1;fill:none;fill-opacity:1;stroke:#ff0000;stroke-width:0.5;stroke-miterlimit:4;stroke-dasharray:none;stroke-opacity:1"
         id="rect2352" />
    </g>
    <rect
       style="opacity:1;fill:none;fill-opacity:1;stroke:#ff0000;stroke-width:0.48464143;stroke-miterlimit:4;stroke-dasharray:none;stroke-opacity:1"
       id="rect2354"
       width="149.51537"
       height="14.328098"
       x="5.3623991"
       y="-181.87007"
       transform="scale(1,-1)" />
    <rect
       transform="scale(1,-1)"
       y="-165.42534"
       x="5.3623991"
       height="14.328098"
       width="149.51537"
       id="rect2380"
       style="opacity:1;fill:none;fill-opacity:1;stroke:#ff0000;stroke-width:0.48464143;stroke-miterlimit:4;stroke-dasharray:none;stroke-opacity:1" />
    <g
       id="g841"
       transform="translate(7.14375,-1.0583333)"
       style="fill:#000000">
      <g
         aria-label="Happy Birthday Theo
"
         transform="matrix(0.26458333,0,0,0.26458333,-28.839583,89.091778)"
         style="font-style:normal;font-variant:normal;font-weight:normal;font-stretch:normal;font-size:16px;line-height:1.25;font-family:'OCR A Extended';-inkscape-font-specification:'OCR A Extended, Normal';font-variant-ligatures:normal;font-variant-caps:normal;font-variant-numeric:normal;font-feature-settings:normal;text-align:start;letter-spacing:0px;word-spacing:0px;writing-mode:lr-tb;text-anchor:start;fill:#000000;fill-opacity:1;stroke:none"
         id="flowRoot2386">
        <path
           d="m 190.58594,185.93345 v -9.07031 q 0,-0.26563 0.1875,-0.46094 0.19531,-0.19531 0.46875,-0.19531 0.26562,0 0.46093,0.19531 0.19532,0.19531 0.19532,0.46094 v 3.86718 h 4 v -3.86718 q 0,-0.26563 0.1875,-0.46094 0.19531,-0.19531 0.46875,-0.19531 0.27343,0 0.46093,0.19531 0.19532,0.19531 0.19532,0.47656 v 9.05469 q 0,0.26562 -0.20313,0.46094 -0.19531,0.19531 -0.45312,0.19531 -0.28125,0 -0.46875,-0.1875 -0.1875,-0.19531 -0.1875,-0.46875 v -3.89063 h -3.98438 v 3.89063 q 0,0.26562 -0.20312,0.46094 -0.19532,0.19531 -0.46875,0.19531 -0.26563,0 -0.46094,-0.1875 -0.19531,-0.19531 -0.19531,-0.46875 z"
           style="fill:#000000"
           id="path843" />
        <path
           d="m 202.22656,181.85532 h 2.57031 q 0.21094,0 0.60938,0.0937 l -0.0156,-0.92968 q 0,-0.27344 -0.19531,-0.46094 -0.1875,-0.19531 -0.46094,-0.19531 h -2.49218 q -0.26563,0 -0.46094,-0.19532 -0.19531,-0.19531 -0.19531,-0.46093 0,-0.27344 0.1875,-0.46094 0.19531,-0.19531 0.46875,-0.19531 h 2.49218 q 0.8125,0 1.38282,0.57031 0.57812,0.57031 0.60156,1.39844 l 0.16406,4.91406 q 0,0.27344 -0.19531,0.46875 -0.19531,0.1875 -0.46094,0.1875 -0.28125,0 -0.47656,-0.1875 -0.19531,-0.19531 -0.19531,-0.46875 l -1.10938,0.65625 h -2.21875 q -0.82812,0 -1.40625,-0.57813 -0.57812,-0.57812 -0.57812,-1.40625 v -0.76562 q 0,-0.82031 0.57812,-1.39844 0.58594,-0.58594 1.40625,-0.58594 z m 3.28125,2.55469 -0.0391,-0.55469 q -0.008,-0.28125 -0.19531,-0.46875 -0.1875,-0.1875 -0.46094,-0.1875 h -2.58594 q -0.27344,0 -0.46875,0.19532 -0.1875,0.1875 -0.1875,0.46093 v 0.73438 q 0,0.26562 0.19531,0.46094 0.19532,0.19531 0.46094,0.19531 h 1.85156 z"
           style="fill:#000000"
           id="path845" />
        <path
           d="m 211.25781,185.8397 v 2.90625 q 0,0.28125 -0.19531,0.47656 -0.1875,0.19531 -0.46094,0.19531 -0.27344,0 -0.47656,-0.19531 -0.19531,-0.19531 -0.19531,-0.47656 v -9.35938 q 0,-0.26562 0.19531,-0.46093 0.19531,-0.19532 0.47656,-0.19532 0.26563,0 0.46094,0.19532 0.19531,0.19531 0.19531,0.46093 v 0.42188 q 0.95313,-1.0625 1.88281,-1.0625 h 0.30469 q 0.69531,0 1.28125,0.51562 l 1.09375,0.94532 q 0.71875,0.625 0.71875,1.58593 v 2.04688 q 0,0.96875 -0.77344,1.63281 l -1.07031,0.92188 q -0.53125,0.48437 -1.34375,0.48437 h -0.28906 q -0.76563,0 -1.29688,-0.53125 z m 1.85156,-0.28906 h 0.33594 q 0.24219,0 0.51563,-0.24219 l 1.02343,-0.89844 q 0.25782,-0.20312 0.25782,-0.55469 v -2.11718 q 0,-0.3125 -0.28907,-0.55469 l -1.10156,-0.94531 q -0.1875,-0.16407 -0.40625,-0.16407 h -0.38281 q -0.21875,0 -0.57031,0.35938 l -0.97657,0.96875 q -0.25781,0.25781 -0.25781,0.57812 v 1.67969 q 0,0.30469 0.28906,0.59375 l 0.94532,0.94531 q 0.35156,0.35157 0.61718,0.35157 z"
           style="fill:#000000"
           id="path847" />
        <path
           d="m 220.91406,185.8397 v 2.90625 q 0,0.28125 -0.19531,0.47656 -0.1875,0.19531 -0.46094,0.19531 -0.27344,0 -0.47656,-0.19531 -0.19531,-0.19531 -0.19531,-0.47656 v -9.35938 q 0,-0.26562 0.19531,-0.46093 0.19531,-0.19532 0.47656,-0.19532 0.26563,0 0.46094,0.19532 0.19531,0.19531 0.19531,0.46093 v 0.42188 q 0.95313,-1.0625 1.88281,-1.0625 h 0.30469 q 0.69531,0 1.28125,0.51562 l 1.09375,0.94532 q 0.71875,0.625 0.71875,1.58593 v 2.04688 q 0,0.96875 -0.77344,1.63281 l -1.07031,0.92188 q -0.53125,0.48437 -1.34375,0.48437 h -0.28906 q -0.76563,0 -1.29688,-0.53125 z m 1.85156,-0.28906 h 0.33594 q 0.24219,0 0.51563,-0.24219 l 1.02343,-0.89844 q 0.25782,-0.20312 0.25782,-0.55469 v -2.11718 q 0,-0.3125 -0.28907,-0.55469 l -1.10156,-0.94531 q -0.1875,-0.16407 -0.40625,-0.16407 h -0.38281 q -0.21875,0 -0.57031,0.35938 l -0.97657,0.96875 q -0.25781,0.25781 -0.25781,0.57812 v 1.67969 q 0,0.30469 0.28906,0.59375 l 0.94532,0.94531 q 0.35156,0.35157 0.61718,0.35157 z"
           style="fill:#000000"
           id="path849" />
        <path
           d="m 235.86719,180.97251 -3.53907,8 q -0.17968,0.42969 -0.625,0.42969 h -1.82031 q -0.27344,0 -0.46875,-0.1875 -0.1875,-0.1875 -0.1875,-0.46875 0,-0.27344 0.1875,-0.46094 0.19531,-0.1875 0.46875,-0.1875 h 1.40625 l 0.89844,-2.08594 h -0.32031 q -0.44532,0 -0.64063,-0.46093 l -1.96875,-4.57813 v -1.26562 q 0,-0.27344 0.1875,-0.46094 0.1875,-0.19531 0.45313,-0.19531 0.27343,0 0.46875,0.19531 0.20312,0.1875 0.20312,0.46094 v 0.97656 l 1.72656,4 h 0.46094 l 1.78125,-3.98438 v -1.00781 q 0,-0.25781 0.19531,-0.45312 0.20313,-0.20313 0.47657,-0.20313 0.26562,0 0.46093,0.19531 0.19532,0.19532 0.19532,0.46094 z"
           style="fill:#000000"
           id="path851" />
        <path
           d="m 255.16406,183.37095 v 0.57812 q 0,1.08594 -0.77344,1.86719 -0.76562,0.77344 -1.85156,0.77344 h -4.01562 v -10.38281 h 4.01562 q 1.08594,0 1.85156,0.77343 0.77344,0.77344 0.77344,1.86719 v 0.55469 q 0,1.16406 -0.89844,1.98437 0.89844,0.83594 0.89844,1.98438 z m -1.34375,-3.98438 v -0.53906 q 0,-0.54687 -0.39062,-0.9375 -0.38282,-0.39062 -0.92188,-0.39062 h -2.67187 v 3.17968 h 2.67187 q 0.53125,0 0.92188,-0.38281 0.39062,-0.39062 0.39062,-0.92969 z m 0,4.5625 v -0.54687 q 0,-0.54688 -0.39062,-0.9375 -0.38282,-0.39063 -0.92188,-0.39063 h -2.65625 v 3.1875 h 2.65625 q 0.53125,0 0.92188,-0.38281 0.39062,-0.39062 0.39062,-0.92969 z"
           style="fill:#000000"
           id="path853" />
        <path
           d="m 260.83594,175.62876 h 0.6875 q 0.27343,0 0.46093,0.19531 0.19532,0.1875 0.19532,0.46094 v 0.5625 q 0,0.27344 -0.19532,0.47656 -0.1875,0.19532 -0.46093,0.19532 h -0.70313 q -0.28125,0 -0.47656,-0.20313 -0.1875,-0.20312 -0.17969,-0.45312 l 0.0156,-0.57813 q 0,-0.27344 0.1875,-0.46094 0.19531,-0.19531 0.46875,-0.19531 z m 2.67187,10.94531 h -4 q -0.27344,0 -0.46875,-0.1875 -0.1875,-0.19531 -0.1875,-0.46875 0,-0.26562 0.1875,-0.46093 0.19531,-0.19532 0.46875,-0.19532 h 1.34375 v -4.89843 h -1.32812 q -0.27344,0 -0.46875,-0.19532 -0.1875,-0.19531 -0.1875,-0.46093 0,-0.27344 0.1875,-0.46875 0.19531,-0.20313 0.46875,-0.20313 h 2 q 0.27343,0 0.46093,0.20313 0.19532,0.19531 0.19532,0.46875 v 5.55468 h 1.3125 q 0.27343,0 0.46875,0.19532 0.20312,0.1875 0.20312,0.46093 0,0.27344 -0.19531,0.46875 -0.19531,0.1875 -0.46094,0.1875 z"
           style="fill:#000000"
           id="path855" />
        <path
           d="m 267.86719,185.93345 v -6.22656 q 0,-0.27344 0.1875,-0.46875 0.19531,-0.20313 0.46875,-0.20313 0.27343,0 0.46093,0.19531 0.19532,0.19532 0.19532,0.47657 v 0.82031 l 1.07031,-0.91406 q 0.66406,-0.5625 1.29687,-0.5625 h 0.96094 q 0.8125,0 1.39063,0.57812 0.57812,0.57813 0.57812,1.39063 v 0.35156 q 0,0.28125 -0.19531,0.47656 -0.1875,0.19531 -0.46094,0.19531 -0.27344,0 -0.46875,-0.1875 -0.1875,-0.19531 -0.1875,-0.46875 v -0.36718 q 0,-0.27344 -0.19531,-0.46094 -0.1875,-0.19531 -0.46094,-0.19531 h -0.85156 q -0.27344,0 -0.60938,0.28906 l -1.86718,1.61719 v 3.66406 q 0,0.27344 -0.19532,0.46875 -0.19531,0.1875 -0.46093,0.1875 -0.27344,0 -0.46875,-0.1875 -0.1875,-0.19531 -0.1875,-0.46875 z"
           style="fill:#000000"
           id="path857" />
        <path
           d="m 282.13281,186.5897 h -1.3125 q -0.8125,0 -1.39844,-0.57813 -0.58593,-0.57812 -0.58593,-1.39062 v -4.25781 h -0.67188 q -0.27344,0 -0.46875,-0.1875 -0.1875,-0.1875 -0.1875,-0.46875 0,-0.27344 0.1875,-0.46094 0.19531,-0.19531 0.46875,-0.19531 h 0.6875 v -1.60938 q 0,-0.27344 0.1875,-0.46094 0.19531,-0.19531 0.46875,-0.19531 0.25781,0 0.45313,0.19531 0.20312,0.19532 0.20312,0.46094 v 1.60938 h 2.64063 q 0.26562,0 0.46093,0.19531 0.19532,0.19531 0.19532,0.46094 0,0.27343 -0.19532,0.46875 -0.19531,0.1875 -0.46093,0.1875 h -2.65625 v 4.25781 q 0,0.26562 0.19531,0.46094 0.20312,0.19531 0.47656,0.19531 h 1.28125 q 0.52344,0 0.69531,-0.5625 0.17188,-0.57031 0.66407,-0.57031 0.28906,0 0.46875,0.19531 0.1875,0.1875 0.1875,0.47656 0,0.59375 -0.5625,1.1875 -0.55469,0.58594 -1.42188,0.58594 z"
           style="fill:#000000"
           id="path859" />
        <path
           d="m 287.16406,185.93345 v -9.07031 q 0,-0.26563 0.1875,-0.45313 0.19531,-0.1875 0.46875,-0.1875 0.27344,0 0.46094,0.19531 0.19531,0.1875 0.19531,0.46094 v 3.3125 l 1.05469,-0.6875 q 0.71875,-0.45312 1.28125,-0.45312 h 0.8125 q 0.80469,0 1.38281,0.57812 0.57813,0.57031 0.60156,1.39063 l 0.16407,4.91406 q 0.008,0.27344 -0.1875,0.46875 -0.19532,0.1875 -0.46875,0.1875 -0.27344,0 -0.46094,-0.19531 -0.1875,-0.20313 -0.19531,-0.46094 l -0.16407,-4.92969 q -0.008,-0.26562 -0.20312,-0.46094 -0.19531,-0.19531 -0.46875,-0.19531 h -0.73438 q -0.25,0 -0.54687,0.19531 l -1.86719,1.21875 v 4.17188 q 0,0.27344 -0.19531,0.46875 -0.1875,0.1875 -0.46094,0.1875 -0.27344,0 -0.46875,-0.1875 -0.1875,-0.19531 -0.1875,-0.46875 z"
           style="fill:#000000"
           id="path861" />
        <path
           d="m 302.11719,179.9647 v -3.10156 q 0,-0.27344 0.1875,-0.46094 0.1875,-0.19531 0.45312,-0.19531 0.27344,0 0.46875,0.19531 0.20313,0.1875 0.20313,0.46094 v 9.07031 q 0,0.27344 -0.19532,0.46875 -0.19531,0.1875 -0.46093,0.1875 -0.28125,0 -0.46875,-0.1875 -0.1875,-0.19531 -0.1875,-0.46875 v -0.28906 q -0.96094,0.94531 -1.79688,0.94531 h -1.11719 q -0.67187,0 -1.34375,-0.57813 l -0.54687,-0.46093 q -0.1875,-0.17969 -0.35938,-0.60157 -0.16406,-0.42187 -0.16406,-0.78906 v -2.67187 q 0,-0.44532 0.1875,-0.85938 0.1875,-0.42187 0.4375,-0.63281 l 0.53906,-0.46094 q 0.57813,-0.5 1.35938,-0.5 h 0.94531 q 0.77344,0 1.40625,0.54688 z m -1.90625,0.39844 h -0.91407 q -0.28906,0 -0.52343,0.21093 l -0.42188,0.36719 q -0.21875,0.19531 -0.21875,0.5 v 2.78125 q 0,0.27344 0.25781,0.49219 l 0.42969,0.36719 q 0.20313,0.17968 0.42969,0.17968 h 1.07031 q 0.21094,0 0.5,-0.24218 l 1.03906,-0.85938 q 0.25782,-0.22656 0.25782,-0.5625 v -1.42187 q 0,-0.47657 -0.27344,-0.70313 l -1.07031,-0.91406 q -0.21094,-0.19531 -0.5625,-0.19531 z"
           style="fill:#000000"
           id="path863" />
        <path
           d="m 308.44531,181.85532 h 2.57031 q 0.21094,0 0.60938,0.0937 l -0.0156,-0.92968 q 0,-0.27344 -0.19531,-0.46094 -0.1875,-0.19531 -0.46094,-0.19531 h -2.49218 q -0.26563,0 -0.46094,-0.19532 -0.19531,-0.19531 -0.19531,-0.46093 0,-0.27344 0.1875,-0.46094 0.19531,-0.19531 0.46875,-0.19531 h 2.49218 q 0.8125,0 1.38282,0.57031 0.57812,0.57031 0.60156,1.39844 l 0.16406,4.91406 q 0,0.27344 -0.19531,0.46875 -0.19531,0.1875 -0.46094,0.1875 -0.28125,0 -0.47656,-0.1875 -0.19531,-0.19531 -0.19531,-0.46875 l -1.10938,0.65625 h -2.21875 q -0.82812,0 -1.40625,-0.57813 -0.57812,-0.57812 -0.57812,-1.40625 v -0.76562 q 0,-0.82031 0.57812,-1.39844 0.58594,-0.58594 1.40625,-0.58594 z m 3.28125,2.55469 -0.0391,-0.55469 q -0.008,-0.28125 -0.19531,-0.46875 -0.1875,-0.1875 -0.46094,-0.1875 h -2.58594 q -0.27344,0 -0.46875,0.19532 -0.1875,0.1875 -0.1875,0.46093 v 0.73438 q 0,0.26562 0.19531,0.46094 0.19532,0.19531 0.46094,0.19531 h 1.85156 z"
           style="fill:#000000"
           id="path865" />
        <path
           d="m 322.77344,180.97251 -3.53907,8 q -0.17968,0.42969 -0.625,0.42969 h -1.82031 q -0.27344,0 -0.46875,-0.1875 -0.1875,-0.1875 -0.1875,-0.46875 0,-0.27344 0.1875,-0.46094 0.19531,-0.1875 0.46875,-0.1875 h 1.40625 l 0.89844,-2.08594 h -0.32031 q -0.44532,0 -0.64063,-0.46093 l -1.96875,-4.57813 v -1.26562 q 0,-0.27344 0.1875,-0.46094 0.1875,-0.19531 0.45313,-0.19531 0.27343,0 0.46875,0.19531 0.20312,0.1875 0.20312,0.46094 v 0.97656 l 1.72656,4 h 0.46094 l 1.78125,-3.98438 v -1.00781 q 0,-0.25781 0.19531,-0.45312 0.20313,-0.20313 0.47657,-0.20313 0.26562,0 0.46093,0.19531 0.19532,0.19532 0.19532,0.46094 z"
           style="fill:#000000"
           id="path867" />
        <path
           d="m 335.44531,177.99595 v -1.77344 h 6.625 v 1.78906 q 0,0.27344 -0.19531,0.46875 -0.19531,0.1875 -0.46094,0.1875 -0.27344,0 -0.47656,-0.19531 -0.19531,-0.19531 -0.19531,-0.46094 v -0.47656 h -1.32813 v 8.39844 q 0,0.27344 -0.19531,0.46875 -0.19531,0.1875 -0.46094,0.1875 -0.28125,0 -0.47656,-0.1875 -0.19531,-0.19531 -0.19531,-0.46875 v -8.39844 h -1.32813 v 0.46094 q 0,0.27344 -0.19531,0.46875 -0.1875,0.1875 -0.46094,0.1875 -0.27344,0 -0.46875,-0.1875 -0.1875,-0.19531 -0.1875,-0.46875 z"
           style="fill:#000000"
           id="path869" />
        <path
           d="m 345.10156,185.93345 v -9.07031 q 0,-0.26563 0.1875,-0.45313 0.19531,-0.1875 0.46875,-0.1875 0.27344,0 0.46094,0.19531 0.19531,0.1875 0.19531,0.46094 v 3.3125 l 1.05469,-0.6875 q 0.71875,-0.45312 1.28125,-0.45312 h 0.8125 q 0.80469,0 1.38281,0.57812 0.57813,0.57031 0.60156,1.39063 l 0.16407,4.91406 q 0.008,0.27344 -0.1875,0.46875 -0.19532,0.1875 -0.46875,0.1875 -0.27344,0 -0.46094,-0.19531 -0.1875,-0.20313 -0.19531,-0.46094 l -0.16407,-4.92969 q -0.008,-0.26562 -0.20312,-0.46094 -0.19531,-0.19531 -0.46875,-0.19531 h -0.73438 q -0.25,0 -0.54687,0.19531 l -1.86719,1.21875 v 4.17188 q 0,0.27344 -0.19531,0.46875 -0.1875,0.1875 -0.46094,0.1875 -0.27344,0 -0.46875,-0.1875 -0.1875,-0.19531 -0.1875,-0.46875 z"
           style="fill:#000000"
           id="path871" />
        <path
           d="m 361.38281,181.51939 v 1.58593 q 0,0.26563 -0.19531,0.46094 -0.19531,0.19531 -0.46094,0.19531 h -4.64062 v 0.38282 q 0,0.33593 0.28906,0.57031 l 0.38281,0.32031 q 0.3125,0.24219 0.59375,0.24219 h 3.375 q 0.26563,0 0.46094,0.19531 0.19531,0.1875 0.19531,0.46094 0,0.26562 -0.20312,0.46094 -0.19532,0.19531 -0.45313,0.19531 h -3.46094 q -0.34375,0 -0.72656,-0.14063 -0.375,-0.14843 -0.55469,-0.30468 l -0.58593,-0.51563 q -0.27344,-0.21875 -0.46094,-0.60937 -0.17969,-0.39063 -0.17969,-0.71875 v -3.00782 q 0,-0.25781 0.19531,-0.69531 0.20313,-0.4375 0.50782,-0.67969 l 0.54687,-0.42968 q 0.53906,-0.4375 1.19531,-0.4375 h 1.84375 q 0.69532,0 1.3125,0.57812 l 0.49219,0.46875 q 0.53125,0.47656 0.53125,1.42188 z m -5.28125,-0.10157 v 1.01563 h 3.98438 v -0.91406 q 0,-0.36719 -0.22657,-0.5625 l -0.38281,-0.33594 q -0.29687,-0.24219 -0.53125,-0.24219 h -1.64844 q -0.30468,0 -0.55468,0.21094 l -0.38282,0.32031 q -0.25781,0.19531 -0.25781,0.50781 z"
           style="fill:#000000"
           id="path873" />
        <path
           d="m 371.03906,181.41782 v 2.77344 q 0,0.88281 -0.83594,1.63281 -0.82812,0.75 -1.71093,0.75 h -1.53907 q -0.89843,0 -1.71875,-0.75781 -0.82031,-0.76562 -0.82031,-1.625 v -2.77344 q 0,-0.85937 0.79688,-1.61718 0.80468,-0.76563 1.74218,-0.76563 h 1.53907 q 0.88281,-0.0156 1.71093,0.73438 0.83594,0.75 0.83594,1.64843 z m -5.29687,0.0547 v 2.65625 q 0,0.35938 0.25781,0.57031 l 0.49219,0.42188 q 0.16406,0.14062 0.46093,0.14062 h 1.52344 q 0.33594,0 0.60938,-0.24218 l 0.39843,-0.35157 q 0.24219,-0.1875 0.24219,-0.52343 v -2.65625 q 0,-0.39063 -0.24219,-0.57813 l -0.46093,-0.36719 q -0.23438,-0.19531 -0.54688,-0.19531 h -1.35937 q -0.44532,0 -0.6875,0.21094 l -0.44532,0.38281 q -0.24218,0.20313 -0.24218,0.53125 z"
           style="fill:#000000"
           id="path875" />
      </g>
      <g
         aria-label="Love, Sidney"
         style="font-style:normal;font-variant:normal;font-weight:normal;font-stretch:normal;font-size:4.23333311px;line-height:1.25;font-family:'OCR A Extended';-inkscape-font-specification:'OCR A Extended, Normal';font-variant-ligatures:normal;font-variant-caps:normal;font-variant-numeric:normal;font-feature-settings:normal;text-align:start;letter-spacing:0px;word-spacing:0px;writing-mode:lr-tb;text-anchor:start;fill:#000000;fill-opacity:1;stroke:none;stroke-width:0.26458332"
         id="text2400">
        <path
           d="m 142.77371,138.46237 v -2.57348 q 0,-0.0703 0.0517,-0.12196 0.0517,-0.0517 0.12196,-0.0517 0.0703,0 0.12196,0.0517 0.0517,0.0517 0.0517,0.12196 v 2.22622 h 1.22783 q 0.0724,0 0.12403,0.0517 0.0537,0.0496 0.0537,0.12196 0,0.0724 -0.0537,0.12402 -0.0517,0.0496 -0.12403,0.0496 z"
           style="font-style:normal;font-variant:normal;font-weight:normal;font-stretch:normal;font-size:4.23333311px;font-family:'OCR A Extended';-inkscape-font-specification:'OCR A Extended, Normal';font-variant-ligatures:normal;font-variant-caps:normal;font-variant-numeric:normal;font-feature-settings:normal;text-align:start;writing-mode:lr-tb;text-anchor:start;stroke-width:0.26458332;fill:#000000"
           id="path878" />
        <path
           d="m 147.07732,137.09398 v 0.73381 q 0,0.23357 -0.22118,0.43201 -0.2191,0.19844 -0.45268,0.19844 h -0.40721 q -0.23771,0 -0.45475,-0.20051 -0.21705,-0.20257 -0.21705,-0.42994 v -0.73381 q 0,-0.22738 0.21084,-0.42788 0.21291,-0.20257 0.46096,-0.20257 h 0.40721 q 0.23358,-0.004 0.45268,0.1943 0.22118,0.19844 0.22118,0.43615 z m -1.40147,0.0145 v 0.7028 q 0,0.0951 0.0682,0.15089 l 0.13022,0.11163 q 0.0434,0.0372 0.12196,0.0372 h 0.40307 q 0.0889,0 0.16123,-0.0641 l 0.10542,-0.093 q 0.0641,-0.0496 0.0641,-0.1385 v -0.7028 q 0,-0.10335 -0.0641,-0.15296 l -0.12195,-0.0971 q -0.062,-0.0517 -0.1447,-0.0517 h -0.35966 q -0.11783,0 -0.1819,0.0558 l -0.11783,0.10129 q -0.0641,0.0537 -0.0641,0.14056 z"
           style="font-style:normal;font-variant:normal;font-weight:normal;font-stretch:normal;font-size:4.23333311px;font-family:'OCR A Extended';-inkscape-font-specification:'OCR A Extended, Normal';font-variant-ligatures:normal;font-variant-caps:normal;font-variant-numeric:normal;font-feature-settings:normal;text-align:start;writing-mode:lr-tb;text-anchor:start;stroke-width:0.26458332;fill:#000000"
           id="path880" />
        <path
           d="m 149.6322,136.64129 v 0.33073 l -0.60151,1.3684 q -0.0579,0.12195 -0.15296,0.12195 h -0.22325 q -0.12195,0 -0.17776,-0.12609 l -0.59738,-1.36012 v -0.33487 q 0,-0.0723 0.0496,-0.12195 0.0517,-0.0517 0.12402,-0.0517 0.0724,0 0.12196,0.0517 0.0517,0.0496 0.0517,0.12195 v 0.26665 l 0.52917,1.19063 0.52503,-1.19476 v -0.26252 q 0,-0.0723 0.0517,-0.12195 0.0517,-0.0517 0.12609,-0.0517 0.0724,0 0.12196,0.0517 0.0517,0.0496 0.0517,0.12195 z"
           style="font-style:normal;font-variant:normal;font-weight:normal;font-stretch:normal;font-size:4.23333311px;font-family:'OCR A Extended';-inkscape-font-specification:'OCR A Extended, Normal';font-variant-ligatures:normal;font-variant-caps:normal;font-variant-numeric:normal;font-feature-settings:normal;text-align:start;writing-mode:lr-tb;text-anchor:start;stroke-width:0.26458332;fill:#000000"
           id="path882" />
        <path
           d="m 152.18708,137.12085 v 0.41961 q 0,0.0703 -0.0517,0.12196 -0.0517,0.0517 -0.12196,0.0517 h -1.22783 v 0.10128 q 0,0.0889 0.0765,0.1509 l 0.10129,0.0847 q 0.0827,0.0641 0.15709,0.0641 h 0.89297 q 0.0703,0 0.12196,0.0517 0.0517,0.0496 0.0517,0.12196 0,0.0703 -0.0537,0.12196 -0.0517,0.0517 -0.11989,0.0517 h -0.9157 q -0.091,0 -0.19224,-0.0372 -0.0992,-0.0393 -0.14676,-0.0806 l -0.15503,-0.13643 q -0.0724,-0.0579 -0.12196,-0.16123 -0.0475,-0.10335 -0.0475,-0.19017 v -0.79581 q 0,-0.0682 0.0517,-0.18397 0.0537,-0.11576 0.13436,-0.17984 l 0.14469,-0.11368 q 0.14263,-0.11576 0.31626,-0.11576 h 0.48782 q 0.18397,0 0.34727,0.15296 l 0.13022,0.12403 q 0.14056,0.12609 0.14056,0.3762 z m -1.39733,-0.0269 v 0.26872 h 1.0542 v -0.24185 q 0,-0.0971 -0.0599,-0.14883 l -0.10129,-0.0889 q -0.0785,-0.0641 -0.14056,-0.0641 h -0.43615 q -0.0806,0 -0.14676,0.0558 l -0.10128,0.0848 q -0.0682,0.0517 -0.0682,0.13436 z"
           style="font-style:normal;font-variant:normal;font-weight:normal;font-stretch:normal;font-size:4.23333311px;font-family:'OCR A Extended';-inkscape-font-specification:'OCR A Extended, Normal';font-variant-ligatures:normal;font-variant-caps:normal;font-variant-numeric:normal;font-feature-settings:normal;text-align:start;writing-mode:lr-tb;text-anchor:start;stroke-width:0.26458332;fill:#000000"
           id="path884" />
        <path
           d="m 154.39057,137.38337 v 0.90123 q 0,0.0724 -0.0517,0.12403 -0.0496,0.0496 -0.12196,0.0496 -0.0723,0 -0.12402,-0.0496 -0.0496,-0.0517 -0.0496,-0.12403 v -0.7276 h -0.52916 q -0.0724,0 -0.12403,-0.0517 -0.0496,-0.0537 -0.0496,-0.12609 0,-0.0703 0.0517,-0.12195 0.0517,-0.0517 0.12196,-0.0517 h 0.70279 q 0.0724,0 0.12196,0.0517 0.0517,0.0517 0.0517,0.12609 z"
           style="font-style:normal;font-variant:normal;font-weight:normal;font-stretch:normal;font-size:4.23333311px;font-family:'OCR A Extended';-inkscape-font-specification:'OCR A Extended, Normal';font-variant-ligatures:normal;font-variant-caps:normal;font-variant-numeric:normal;font-feature-settings:normal;text-align:start;writing-mode:lr-tb;text-anchor:start;stroke-width:0.26458332;fill:#000000"
           id="path886" />
        <path
           d="m 158.49574,135.71525 h 0.90331 q 0.16536,0 0.31212,0.14056 0.14883,0.1385 0.14883,0.33693 0,0.0744 -0.0537,0.12609 -0.0517,0.0517 -0.11576,0.0517 -0.0889,0 -0.12195,-0.0393 -0.0331,-0.0413 -0.0641,-0.1509 -0.0289,-0.10955 -0.13229,-0.10955 h -0.85783 q -0.062,0 -0.062,0.0393 0,0.0248 0.0269,0.0579 l 1.28777,1.64744 q 0.093,0.11989 0.093,0.25632 0,0.15503 -0.11369,0.27285 -0.11162,0.11782 -0.25011,0.11782 h -0.93638 q -0.18603,0 -0.32453,-0.14056 -0.13642,-0.14263 -0.13642,-0.31212 0,-0.19431 0.1819,-0.19431 0.0703,0 0.11989,0.0517 0.0496,0.0496 0.0496,0.11782 0,0.0558 0.0372,0.093 0.0393,0.0372 0.0972,0.0372 h 0.86403 q 0.0558,0 0.0558,-0.0434 0,-0.0207 -0.0269,-0.0537 l -1.28571,-1.64744 q -0.0909,-0.11782 -0.0909,-0.25632 0,-0.16123 0.11575,-0.27905 0.11576,-0.11989 0.27905,-0.11989 z"
           style="font-style:normal;font-variant:normal;font-weight:normal;font-stretch:normal;font-size:4.23333311px;font-family:'OCR A Extended';-inkscape-font-specification:'OCR A Extended, Normal';font-variant-ligatures:normal;font-variant-caps:normal;font-variant-numeric:normal;font-feature-settings:normal;text-align:start;writing-mode:lr-tb;text-anchor:start;stroke-width:0.26458332;fill:#000000"
           id="path888" />
        <path
           d="m 161.35242,135.56229 h 0.1819 q 0.0724,0 0.12195,0.0517 0.0517,0.0496 0.0517,0.12195 v 0.14883 q 0,0.0724 -0.0517,0.12609 -0.0496,0.0517 -0.12195,0.0517 h -0.18604 q -0.0744,0 -0.12609,-0.0538 -0.0496,-0.0537 -0.0475,-0.11988 l 0.004,-0.15297 q 0,-0.0723 0.0496,-0.12195 0.0517,-0.0517 0.12403,-0.0517 z m 0.70693,2.89595 h -1.05833 q -0.0724,0 -0.12403,-0.0496 -0.0496,-0.0517 -0.0496,-0.12403 0,-0.0703 0.0496,-0.12195 0.0517,-0.0517 0.12403,-0.0517 h 0.35553 v -1.29604 h -0.3514 q -0.0724,0 -0.12402,-0.0517 -0.0496,-0.0517 -0.0496,-0.12196 0,-0.0723 0.0496,-0.12402 0.0517,-0.0537 0.12402,-0.0537 h 0.52917 q 0.0724,0 0.12195,0.0537 0.0517,0.0517 0.0517,0.12402 v 1.46968 h 0.34727 q 0.0723,0 0.12402,0.0517 0.0537,0.0496 0.0537,0.12195 0,0.0724 -0.0517,0.12403 -0.0517,0.0496 -0.12196,0.0496 z"
           style="font-style:normal;font-variant:normal;font-weight:normal;font-stretch:normal;font-size:4.23333311px;font-family:'OCR A Extended';-inkscape-font-specification:'OCR A Extended, Normal';font-variant-ligatures:normal;font-variant-caps:normal;font-variant-numeric:normal;font-feature-settings:normal;text-align:start;writing-mode:lr-tb;text-anchor:start;stroke-width:0.26458332;fill:#000000"
           id="path890" />
        <path
           d="m 164.6101,136.70951 v -0.82062 q 0,-0.0724 0.0496,-0.12196 0.0496,-0.0517 0.11989,-0.0517 0.0723,0 0.12402,0.0517 0.0537,0.0496 0.0537,0.12196 v 2.39985 q 0,0.0724 -0.0517,0.12402 -0.0517,0.0496 -0.12196,0.0496 -0.0744,0 -0.12402,-0.0496 -0.0496,-0.0517 -0.0496,-0.12402 v -0.0765 q -0.25425,0.25011 -0.47542,0.25011 h -0.29559 q -0.17777,0 -0.35554,-0.15296 l -0.14469,-0.12196 q -0.0496,-0.0475 -0.0951,-0.15916 -0.0434,-0.11162 -0.0434,-0.20877 v -0.70694 q 0,-0.11782 0.0496,-0.22737 0.0496,-0.11162 0.11575,-0.16743 l 0.14263,-0.12196 q 0.15296,-0.13229 0.35967,-0.13229 h 0.25011 q 0.20464,0 0.37207,0.14469 z m -0.50436,0.10542 h -0.24185 q -0.0765,0 -0.13849,0.0558 l -0.11162,0.0971 q -0.0579,0.0517 -0.0579,0.13229 v 0.73587 q 0,0.0724 0.0682,0.13023 l 0.11369,0.0971 q 0.0537,0.0475 0.11369,0.0475 h 0.28319 q 0.0558,0 0.13229,-0.0641 l 0.27492,-0.22737 q 0.0682,-0.06 0.0682,-0.14883 v -0.37621 q 0,-0.12609 -0.0724,-0.18603 l -0.28319,-0.24185 q -0.0558,-0.0517 -0.14882,-0.0517 z"
           style="font-style:normal;font-variant:normal;font-weight:normal;font-stretch:normal;font-size:4.23333311px;font-family:'OCR A Extended';-inkscape-font-specification:'OCR A Extended, Normal';font-variant-ligatures:normal;font-variant-caps:normal;font-variant-numeric:normal;font-feature-settings:normal;text-align:start;writing-mode:lr-tb;text-anchor:start;stroke-width:0.26458332;fill:#000000"
           id="path892" />
        <path
           d="m 166.58827,136.87074 -0.47335,0.30799 v 1.11001 q 0,0.0703 -0.0517,0.12196 -0.0517,0.0517 -0.12196,0.0517 -0.0703,0 -0.12195,-0.0517 -0.0517,-0.0517 -0.0517,-0.12196 v -1.64745 q 0,-0.0723 0.0496,-0.12402 0.0517,-0.0537 0.12402,-0.0537 0.0703,0 0.12196,0.0537 0.0517,0.0517 0.0517,0.12402 v 0.11576 l 0.31626,-0.19224 q 0.15916,-0.10128 0.35966,-0.10128 h 0.16123 q 0.20671,0 0.3576,0.14676 0.1509,0.14676 0.15917,0.36173 l 0.0475,1.31672 q 0.002,0.0703 -0.0496,0.12196 -0.0517,0.0517 -0.12402,0.0517 -0.0682,0 -0.11989,-0.0455 -0.0517,-0.0476 -0.0538,-0.12816 l -0.0517,-1.29605 q -0.006,-0.1819 -0.19017,-0.1819 h -0.1695 q -0.0786,0 -0.1695,0.06 z"
           style="font-style:normal;font-variant:normal;font-weight:normal;font-stretch:normal;font-size:4.23333311px;font-family:'OCR A Extended';-inkscape-font-specification:'OCR A Extended, Normal';font-variant-ligatures:normal;font-variant-caps:normal;font-variant-numeric:normal;font-feature-settings:normal;text-align:start;writing-mode:lr-tb;text-anchor:start;stroke-width:0.26458332;fill:#000000"
           id="path894" />
        <path
           d="m 170.07126,137.12085 v 0.41961 q 0,0.0703 -0.0517,0.12196 -0.0517,0.0517 -0.12196,0.0517 h -1.22783 v 0.10128 q 0,0.0889 0.0765,0.1509 l 0.10129,0.0847 q 0.0827,0.0641 0.15709,0.0641 h 0.89297 q 0.0703,0 0.12196,0.0517 0.0517,0.0496 0.0517,0.12196 0,0.0703 -0.0537,0.12196 -0.0517,0.0517 -0.11989,0.0517 h -0.9157 q -0.091,0 -0.19224,-0.0372 -0.0992,-0.0393 -0.14676,-0.0806 l -0.15503,-0.13643 q -0.0724,-0.0579 -0.12196,-0.16123 -0.0475,-0.10335 -0.0475,-0.19017 v -0.79581 q 0,-0.0682 0.0517,-0.18397 0.0537,-0.11576 0.13436,-0.17984 l 0.14469,-0.11368 q 0.14263,-0.11576 0.31626,-0.11576 h 0.48782 q 0.18397,0 0.34727,0.15296 l 0.13022,0.12403 q 0.14056,0.12609 0.14056,0.3762 z m -1.39733,-0.0269 v 0.26872 h 1.0542 v -0.24185 q 0,-0.0971 -0.0599,-0.14883 l -0.10129,-0.0889 q -0.0786,-0.0641 -0.14056,-0.0641 h -0.43615 q -0.0806,0 -0.14676,0.0558 l -0.10128,0.0848 q -0.0682,0.0517 -0.0682,0.13436 z"
           style="font-style:normal;font-variant:normal;font-weight:normal;font-stretch:normal;font-size:4.23333311px;font-family:'OCR A Extended';-inkscape-font-specification:'OCR A Extended, Normal';font-variant-ligatures:normal;font-variant-caps:normal;font-variant-numeric:normal;font-feature-settings:normal;text-align:start;writing-mode:lr-tb;text-anchor:start;stroke-width:0.26458332;fill:#000000"
           id="path896" />
        <path
           d="m 172.63028,136.97616 -0.93638,2.11666 q -0.0475,0.11369 -0.16536,0.11369 h -0.48163 q -0.0723,0 -0.12402,-0.0496 -0.0496,-0.0496 -0.0496,-0.12402 0,-0.0724 0.0496,-0.12196 0.0517,-0.0496 0.12402,-0.0496 h 0.37208 l 0.23771,-0.5519 h -0.0848 q -0.11782,0 -0.1695,-0.12196 l -0.5209,-1.21129 v -0.33487 q 0,-0.0723 0.0496,-0.12195 0.0496,-0.0517 0.11989,-0.0517 0.0724,0 0.12402,0.0517 0.0538,0.0496 0.0538,0.12195 v 0.25839 l 0.45682,1.05833 h 0.12195 l 0.47129,-1.0542 v -0.26665 q 0,-0.0682 0.0517,-0.11989 0.0537,-0.0537 0.12609,-0.0537 0.0703,0 0.12195,0.0517 0.0517,0.0517 0.0517,0.12196 z"
           style="font-style:normal;font-variant:normal;font-weight:normal;font-stretch:normal;font-size:4.23333311px;font-family:'OCR A Extended';-inkscape-font-specification:'OCR A Extended, Normal';font-variant-ligatures:normal;font-variant-caps:normal;font-variant-numeric:normal;font-feature-settings:normal;text-align:start;writing-mode:lr-tb;text-anchor:start;stroke-width:0.26458332;fill:#000000"
           id="path898" />
      </g>
    </g>
  </g>
</svg>
