<?xml version="1.0" encoding="UTF-8" standalone="no"?>
<!-- Created with Inkscape (http://www.inkscape.org/) -->

<svg
   xmlns:dc="http://purl.org/dc/elements/1.1/"
   xmlns:cc="http://creativecommons.org/ns#"
   xmlns:rdf="http://www.w3.org/1999/02/22-rdf-syntax-ns#"
   xmlns:svg="http://www.w3.org/2000/svg"
   xmlns="http://www.w3.org/2000/svg"
   xmlns:sodipodi="http://sodipodi.sourceforge.net/DTD/sodipodi-0.dtd"
   xmlns:inkscape="http://www.inkscape.org/namespaces/inkscape"
   width="11in"
   height="8.5in"
   viewBox="0 0 279.4 215.9"
   version="1.1"
   id="svg8"
   inkscape:version="0.92.2 5c3e80d, 2017-08-06"
   sodipodi:docname="theosign-acrylic.svg">
  <defs
     id="defs2">
    <style
       id="style1251">.cls-1,.cls-2{fill:none;stroke:#000;stroke-linecap:round;stroke-linejoin:round;}.cls-1{stroke-width:1.72px;}.cls-2{stroke-width:2px;}</style>
  </defs>
  <sodipodi:namedview
     id="base"
     pagecolor="#ffffff"
     bordercolor="#666666"
     borderopacity="1.0"
     inkscape:pageopacity="0.0"
     inkscape:pageshadow="2"
     inkscape:zoom="0.92261968"
     inkscape:cx="524.50259"
     inkscape:cy="477.30872"
     inkscape:document-units="mm"
     inkscape:current-layer="layer1"
     showgrid="false"
     units="in"
     inkscape:window-width="1415"
     inkscape:window-height="855"
     inkscape:window-x="0"
     inkscape:window-y="1"
     inkscape:window-maximized="1" />
  <metadata
     id="metadata5">
    <rdf:RDF>
      <cc:Work
         rdf:about="">
        <dc:format>image/svg+xml</dc:format>
        <dc:type
           rdf:resource="http://purl.org/dc/dcmitype/StillImage" />
        <dc:title />
      </cc:Work>
    </rdf:RDF>
  </metadata>
  <g
     inkscape:label="Layer 1"
     inkscape:groupmode="layer"
     id="layer1"
     transform="translate(0,-81.1)">
    <g
       aria-label="Theo"
       transform="scale(0.92300803,1.0834142)"
       style="font-style:normal;font-variant:normal;font-weight:normal;font-stretch:normal;font-size:53.06338501px;line-height:1.25;font-family:'StarJedi Special Edition';-inkscape-font-specification:'StarJedi Special Edition, Normal';font-variant-ligatures:normal;font-variant-caps:normal;font-variant-numeric:normal;font-feature-settings:normal;text-align:start;letter-spacing:0px;word-spacing:0px;writing-mode:lr-tb;text-anchor:start;fill:none;fill-opacity:1;stroke:#000000;stroke-width:1.18931735;stroke-miterlimit:4;stroke-dasharray:none"
       id="text821">
      <path
         d="m 138.008,156.32099 v 11.14123 h -11.86671 v 26.2726 h -12.17764 v -26.2726 h -11.86671 v -11.14123 z"
         style="font-style:normal;font-variant:normal;font-weight:normal;font-stretch:normal;font-size:53.06338501px;font-family:'StarJedi Special Edition';-inkscape-font-specification:'StarJedi Special Edition, Normal';font-variant-ligatures:normal;font-variant-caps:normal;font-variant-numeric:normal;font-feature-settings:normal;text-align:start;letter-spacing:8.17710304px;writing-mode:lr-tb;text-anchor:start;fill:none;stroke:#000000;stroke-width:1.18931735;stroke-miterlimit:4;stroke-dasharray:none"
         id="path845" />
      <path
         d="m 165.15112,169.22409 v -12.9031 h 12.17763 v 37.41383 h -12.17763 v -13.47313 h -9.79393 v 13.47313 h -12.17763 v -37.41383 h 12.17763 v 12.9031 z"
         style="font-style:normal;font-variant:normal;font-weight:normal;font-stretch:normal;font-size:53.06338501px;font-family:'StarJedi Special Edition';-inkscape-font-specification:'StarJedi Special Edition, Normal';font-variant-ligatures:normal;font-variant-caps:normal;font-variant-numeric:normal;font-feature-settings:normal;text-align:start;letter-spacing:8.17710304px;writing-mode:lr-tb;text-anchor:start;fill:none;stroke:#000000;stroke-width:1.18931735;stroke-miterlimit:4;stroke-dasharray:none"
         id="path847" />
      <path
         d="m 188.14866,193.73482 v -37.41383 h 32.0764 v 11.14123 h -19.89877 v 2.43553 h 8.34298 v 7.25476 h -8.34298 v 5.44107 h 23.05978 v 11.14124 z"
         style="font-style:normal;font-variant:normal;font-weight:normal;font-stretch:normal;font-size:53.06338501px;font-family:'StarJedi Special Edition';-inkscape-font-specification:'StarJedi Special Edition, Normal';font-variant-ligatures:normal;font-variant-caps:normal;font-variant-numeric:normal;font-feature-settings:normal;text-align:start;letter-spacing:8.17710304px;writing-mode:lr-tb;text-anchor:start;fill:none;stroke:#000000;stroke-width:1.18931735;stroke-miterlimit:4;stroke-dasharray:none"
         id="path849" />
      <path
         d="m 273.22622,175.23518 q 0,6.14064 -2.56508,10.46758 -2.56508,4.32695 -7.43613,6.50338 -4.84514,2.17642 -11.5817,2.17642 -6.73657,0 -11.58171,-2.17642 -4.81923,-2.20234 -7.30658,-6.47747 -2.48735,-4.30103 -2.48735,-10.49349 0,-4.68968 1.42505,-8.23933 1.42504,-3.57556 4.17148,-6.01109 2.74645,-2.43553 6.73657,-3.6792 3.99011,-1.26958 9.04254,-1.26958 6.71065,0 11.5817,2.22824 4.87105,2.20234 7.43613,6.52929 2.56508,4.30103 2.56508,10.44167 z m -29.66679,0.10364 q 0,3.60147 1.60641,6.27018 1.63232,2.66872 6.39974,2.66872 3.6792,0 5.49289,-1.39913 1.83959,-1.39913 2.28006,-3.18691 0.46638,-1.81369 0.62184,-4.35286 -0.15546,-3.60147 -1.73596,-6.27019 -1.5805,-2.69462 -6.65883,-2.69462 -8.00615,0 -8.00615,8.96481 z"
         style="font-style:normal;font-variant:normal;font-weight:normal;font-stretch:normal;font-size:53.06338501px;font-family:'StarJedi Special Edition';-inkscape-font-specification:'StarJedi Special Edition, Normal';font-variant-ligatures:normal;font-variant-caps:normal;font-variant-numeric:normal;font-feature-settings:normal;text-align:start;letter-spacing:8.17710304px;writing-mode:lr-tb;text-anchor:start;fill:none;stroke:#000000;stroke-width:1.18931735;stroke-miterlimit:4;stroke-dasharray:none"
         id="path851" />
    </g>
    <path
       style="fill:#000000;stroke-width:2.98643923"
       inkscape:connector-curvature="0"
       d="M 76.912265,167.76473 H 69.96798 l -0.301919,-0.2954 v -9.74815 h -6.340429 l -2.415406,-0.88619 v -0.59079 h -4.830798 l -0.905776,-0.59079 h -0.905775 l -0.603855,0.59079 h -3.925023 l -0.603855,-0.59079 h -0.905775 l -0.603841,0.59079 h -3.925037 l -0.60384,-0.59079 h -0.905776 l -0.603854,0.59079 h -3.925023 l -0.603855,-0.88619 h -0.905776 l -0.603855,0.88619 h -5.132719 l -3.321181,1.18159 -0.301921,0.59079 c 0,0 -6.340427,0 -9.66161,0 -3.019246,0 -6.038493,0.88621 -6.038493,0.88621 l -0.301934,-0.88621 v -1.47699 h -0.60384 l -0.6038568,-2.06777 v -2.3632 -2.06779 l 0.6038568,-2.06778 h 0.60384 v -1.477 l 0.301934,-0.88619 c 0,0 3.019247,1.18159 6.038493,0.88619 3.019262,-0.2954 9.66161,0 9.66161,0 l 0.301921,0.59079 3.321181,1.18161 h 5.132719 l 0.603855,0.88619 h 0.905776 l 0.30192,-1.18159 H 41.2851 l 0.60384,0.5908 h 0.905776 l 0.603856,-0.5908 h 3.925021 l 0.603855,0.5908 h 0.905776 l 0.603856,-0.5908 h 3.925021 l 0.603856,0.5908 h 0.905776 l 0.905775,-0.5908 h 4.830797 v -0.59081 l 2.415392,-0.88619 h 6.340429 v -9.74815 l 0.301935,-0.2954 h 6.944269 l 0.603855,0.59079 v 9.74816 l 0.30192,0.29539 v 1.7724 h 3.321183 v -0.29539 h 0.603856 l 0.60384,0.59079 v 2.95398 2.95399 l -0.60384,0.5908 h -0.603856 v -0.2954 h -3.321183 v 1.77238 l -0.30192,0.2954 v 9.74814 z M 255.65195,148.85924 H 83.554615 v 6.20337 H 255.65195 c 0.90576,0 4.83079,-0.29539 5.43464,-0.59079 l 3.62312,-1.477 c 0.60384,-0.2954 0.60384,-1.47698 0,-1.77238 l -3.62312,-1.47701 c -0.60385,-0.59079 -4.52888,-0.88619 -5.43464,-0.88619 z M 76.308409,191.1012 v -22.15486 h -5.736573 v 22.15486 c 0,0.88622 0.30192,4.72639 0.603841,5.31719 l 1.50963,3.54478 c 0.301921,0.59079 1.207696,0.59079 1.509631,0 l 1.509616,-3.54478 c 0.301935,-0.88619 0.603855,-4.72637 0.603855,-5.31719 z m -0.603855,-83.30235 -1.509616,-3.54478 c -0.301935,-0.59079 -1.20771,-0.59079 -1.509631,0 l -1.50963,3.54478 c -0.301921,0.5908 -0.603841,4.43097 -0.603841,5.31716 v 22.1549 h 5.736573 v -22.1549 c 0,-0.59079 -0.30192,-4.43097 -0.603855,-5.31716 z"
       id="path875" />
    <g
       style="fill:none;fill-rule:evenodd;stroke:none;stroke-width:1"
       id="g993"
       transform="matrix(2.995077,0,0,3.0725098,-69.820081,64.93785)">
      <g
         id="g991">
        <g
           id="g1041"
           transform="matrix(0,-1.046957,0.95514909,0,22.041379,108.85459)">
          <path
             id="path975"
             d="M 49,7.5033121 C 49,6.6730557 49.665797,6 50.5,6 51.328427,6 52,6.6754465 52,7.5033121 V 70 h -3 z m 0.5,-0.00711 V 69.921679 h 2 V 7.4962031 C 51.5,6.9388607 51.052285,6.5 50.5,6.5 c -0.556135,0 -1,0.4460153 -1,0.9962031 z"
             inkscape:connector-curvature="0"
             style="fill:#000000;stroke:#000000;stroke-width:0.25" />
          <path
             id="path977"
             d="m 49.880001,7.5685345 c 0,-0.3416073 0.277416,-0.6185347 0.625,-0.6185347 v 0 c 0.345178,0 0.625,0.2786293 0.625,0.6185347 V 69.444974 h -1.25 z"
             inkscape:connector-curvature="0"
             style="fill:#000000" />
          <rect
             id="rect979"
             height="23.04788"
             width="4.2608695"
             y="70.382355"
             x="48.217392"
             style="stroke:#000000;stroke-width:0.5" />
          <path
             id="path981"
             d="m 53.086956,77.732558 h -0.608695 v -0.313953 h -4.565218 v 5.651162 h 4.565218 v -0.313953 h 0.608695 z m 0.304348,0 H 54 v 5.023256 h -0.608696 z"
             inkscape:connector-curvature="0"
             style="fill:#000000" />
          <path
             id="path983"
             d="m 47.913043,68 v 2.825581 h -0.304347 v -0.1598 c 0,-0.08261 -0.06877,-0.154153 -0.1536,-0.154153 H 47.1536 c -0.08846,0 -0.1536,0.06902 -0.1536,0.154153 v 1.575415 c 0,0.08261 0.06877,0.154153 0.1536,0.154153 h 0.301496 c 0.08846,0 0.1536,-0.06902 0.1536,-0.154153 v -0.159801 h 0.304347 v 2.979529 c 0,0.08853 0.0675,0.160006 0.150771,0.160006 h 0.611502 c 0.08511,0 0.150771,-0.07164 0.150771,-0.160006 v -1.425938 c 0.09197,0.01064 0.193112,0.01618 0.304348,0.01618 0.672346,0 0.924518,-0.388188 1.158139,-0.635864 0.186676,-0.197906 0.315893,-0.425038 0.554291,-0.61995 h 1.939744 v -2.19917 c 0,0 -1.897189,-2.196179 -4.869566,-2.196179 z"
             inkscape:connector-curvature="0"
             style="fill:#000000" />
          <polygon
             id="polygon985"
             points="49.73913,86.209302 49.73913,93.430233 49.130435,93.430233 49.130435,86.209302 47.913044,86.209302 47.913044,93.508721 48.217391,93.508721 48.217391,95 52.478261,95 52.478261,93.508721 52.782609,93.508721 52.782609,86.209302 51.565217,86.209302 51.565217,93.430233 50.956522,93.430233 50.956522,86.209302 "
             style="fill:#000000" />
          <ellipse
             id="ellipse987"
             ry="0.31395349"
             rx="0.30434781"
             cy="74.279068"
             cx="50.347828"
             style="stroke:#000000;stroke-width:0.5" />
          <ellipse
             id="ellipse989"
             ry="0.31395349"
             rx="0.30434781"
             cy="75.534882"
             cx="50.347828"
             style="stroke:#000000;stroke-width:0.5" />
        </g>
      </g>
    </g>
    <polygon
       points="49.180176,97.5 49.179688,97.5 "
       id="polygon1111"
       transform="matrix(0.46888616,0,0,0.46888616,102.49727,94.241853)" />
    <path
       inkscape:connector-curvature="0"
       d="m 147.07305,120.9615 c -0.32465,0.4524 -0.7134,0.89198 -1.16626,1.31554 -2.23271,2.0903 -5.97601,3.79413 -10.73539,4.77357 -0.33106,0.0682 -0.66578,0.13371 -1.00646,0.19461 -0.261,0.0467 -0.5252,0.0911 -0.79124,0.13325 -0.0215,0.003 -0.0426,0.007 -0.0636,0.0105 -0.009,0.001 -0.0174,0.003 -0.0261,0.005 -1.5019,6.26357 -4.32987,10.78301 -7.34191,10.78301 -4.6e-4,0 -4.6e-4,0 -4.6e-4,0 v 0 c -9.80036,0 -18.01137,-6.91745 -20.01787,-16.12575 1.21434,1.16306 2.91954,2.2208 5.08219,3.12194 4.18106,1.7423 9.66391,2.74143 15.04237,2.74143 2.621,0 4.83401,-0.15156 7.21874,-0.5188 l 0.26741,-1.11498 0.17858,-0.7427 c 0.29397,-0.0463 0.58611,-0.098 0.87642,-0.15248 0.31869,-0.06 0.63418,-0.12547 0.94738,-0.19507 4.55653,-1.01378 8.53382,-3.0331 10.76378,-5.21086 0.38234,-0.37364 0.71569,-0.75187 0.98951,-1.13009 0.53025,-0.73355 0.84162,-1.46779 0.89794,-2.17226 -0.52979,-11.81375 -10.30405,-21.262683 -22.24599,-21.262912 h -4.6e-4 v 0 c -12.2808,0 -22.2721,9.991312 -22.2721,22.272102 0,12.28078 9.9913,22.27209 22.2721,22.27209 v 0 c 0,0 0,0 4.6e-4,0 12.28032,0 22.27163,-9.99131 22.27163,-22.27209 0,1.13741 -0.39883,2.24003 -1.14062,3.27533 z m -13.69111,-13.92143 c 0.15568,-0.0188 0.31274,-0.0229 0.4698,-0.0284 0.0636,-0.002 0.1273,-0.0115 0.19049,-0.0115 0.34113,0 0.67539,0.0355 1.00233,0.0959 2.5656,0.47324 4.62751,2.72426 4.97459,5.60832 0.36769,3.04891 -1.30867,5.8407 -3.87243,6.78168 -0.28893,0.10577 -0.59069,0.18362 -0.90068,0.23994 -0.10944,0.0202 -0.21705,0.0449 -0.32832,0.0581 -0.18819,0.0224 -0.37822,0.0307 -0.56687,0.0339 -0.0311,4.5e-4 -0.0623,0.005 -0.0929,0.005 -0.19507,0 -0.3883,-0.011 -0.5797,-0.0311 0.33381,-0.73217 0.57466,-1.79678 0.7189,-2.89276 0.0472,-0.36128 0.0838,-0.72531 0.11035,-1.08224 0.261,-0.0396 0.50827,-0.12432 0.73447,-0.25138 0.27886,-0.1566 0.52749,-0.37136 0.72622,-0.64449 0.0517,-0.071 0.0893,-0.14951 0.13279,-0.22506 0.26695,-0.46476 0.38601,-1.00554 0.31961,-1.55799 -0.0614,-0.50666 -0.26649,-0.9609 -0.56596,-1.32241 -0.28389,-0.34228 -0.65204,-0.59961 -1.06735,-0.73423 -0.25002,-0.081 -0.51789,-0.10876 -0.79262,-0.0925 -0.0238,-0.0852 -0.0481,-0.16988 -0.0728,-0.25482 -0.40799,-1.39452 -0.98585,-2.76776 -1.66354,-3.43766 0.30908,-0.10577 0.63053,-0.17835 0.95792,-0.22803 0.0554,-0.008 0.1099,-0.022 0.16576,-0.0289 z m 2.10587,7.53217 c -0.082,0.11287 -0.17767,0.20857 -0.27932,0.29534 -0.19415,0.16576 -0.42081,0.27795 -0.66624,0.3361 -0.0572,0.0135 -0.11264,0.0323 -0.17171,0.0394 -0.008,9.4e-4 -0.0165,-7.1e-4 -0.0247,2.3e-4 -0.92953,0.0962 -1.75695,-0.63533 -1.87646,-1.62874 -0.1218,-1.00966 0.533,-1.92179 1.45978,-2.03352 0.0357,-0.004 0.071,-0.005 0.10669,-0.006 0.027,-0.002 0.0545,-0.005 0.0815,-0.005 0.0101,0 0.0192,0.003 0.0293,0.003 0.26695,0.005 0.51834,0.0808 0.74454,0.20605 0.4959,0.27428 0.86313,0.79651 0.93915,1.43093 0.0595,0.49292 -0.0623,0.97715 -0.34251,1.3627 z m -30.03666,3.11393 c 0,-11.29837 9.19182,-20.490197 20.49043,-20.490197 v 0 c 0,0 0,0 4.6e-4,0 2.86918,2.29e-4 5.36105,3.294107 6.88401,8.435607 -1.81601,0.31961 -3.42369,1.32607 -4.55378,2.87971 -1.19648,1.64522 -1.71711,3.70004 -1.46618,5.78553 0.48125,3.99469 3.68057,7.00719 7.44402,7.01131 -0.12271,1.4584 -0.31549,2.87788 -0.57054,4.23463 -2.32749,0.36174 -5.07487,0.58977 -7.6313,0.58977 -8.17483,0 -16.82267,-2.89116 -20.47486,-6.22785 -0.0788,-0.72898 -0.12226,-1.46848 -0.12226,-2.21851 z"
       id="path1113"
       style="stroke-width:0.46888617" />
    <g
       id="g1283"
       transform="matrix(0.8931744,0,0,0.8931744,20.900415,10.804668)">
      <path
         id="path1259"
         d="m 183.99479,111.81143 a 17.929591,17.929591 0 1 1 -19.55027,0 m 20.64274,-1.80076 a 10.342379,10.342379 0 0 0 0.09,-1.36858 c 0,-5.87649 -4.91007,-10.636505 -10.96064,-10.636505 a 10.804574,10.804574 0 0 0 -10.95463,10.612495 10.342379,10.342379 0 0 0 0.09,1.36858 m 10.75656,-3.5295 a 3.0672986,3.0672986 0 1 0 -3.0613,-3.0673 3.0672986,3.0672986 0 0 0 3.0613,3.0673 z m 6.3927,0.89438 a 1.2485286,1.2485286 0 1 0 -1.24252,-1.24853 1.2485286,1.2485286 0 0 0 1.25453,1.24853 z m -6.3927,-2.71315 a 1.2485286,1.2485286 0 1 0 -1.20051,-1.24853 1.2485286,1.2485286 0 0 0 1.20051,1.24853 z m -10.75656,5.34827 1.09247,1.80076 h 19.55027 l 1.09247,-1.80076 m -9.00382,-11.849019 v -2.563085 m 2.13691,2.965255 v -5.660396 m -2.13691,2.695141 a 0.44418806,0.44418806 0 1 0 -0.43818,-0.444188 0.44418806,0.44418806 0 0 0 0.4682,0.444188 z m 3.60153,29.190354 a 0.60025413,0.60025413 0 1 0 -0.60026,0.60026 0.60025413,0.60025413 0 0 0 0.66028,-0.60026 z m -15.29448,6.6028 a 0.60025413,0.60025413 0 1 0 -0.60025,0.60025 0.60025413,0.60025413 0 0 0 0.66028,-0.61826 z m 25.36074,4.33383 a 17.209286,17.209286 0 0 0 -28.5721,3.51749 m 20.73278,-27.4076 a 17.233296,17.233296 0 0 0 9.60407,19.56828 m -35.11487,-2.56308 a 17.581443,17.581443 0 0 0 2.65312,0.20409 17.215288,17.215288 0 0 0 17.20929,-17.20929 m 11.30879,27.01144 a 13.523726,13.523726 0 0 0 -23.40991,2.89322 m 21.31502,-28.8122 a 13.523726,13.523726 0 0 0 6.63881,14.6402 m -35.75113,-2.32298 a 13.685794,13.685794 0 0 0 16.36292,-13.40968 m 8.74571,4.23779 -5.52234,-0.97841 m -8.7397,11.91504 2.55708,4.06973 m 17.40737,-2.50306 -1.80076,3.40944 m -22.02333,-21.9753 h 21.73521"
         class="cls-2"
         inkscape:connector-curvature="0"
         style="fill:none;stroke:#000000;stroke-width:1.20050824px;stroke-linecap:round;stroke-linejoin:round" />
    </g>
    <g
       id="g1756"
       transform="matrix(1.0131202,0,0,1.0131202,12.291574,5.1417867)">
      <path
         style="stroke-width:0.74381465"
         id="path1673"
         d="m 229.76512,116.56626 a 0.74354687,0.74354687 0 0 0 -1.05179,0 l -1.04436,1.04435 -0.52136,-0.52136 a 0.74373491,0.74373491 0 0 0 -1.0518,1.0518 l 0.52136,0.52136 -9.64035,9.64 c -0.0105,0.0105 -0.0138,0.0246 -0.0236,0.0356 l -0.0457,0.0457 -0.0298,0.0371 -3.86039,3.85302 1.04134,1.04134 3.93478,-3.93478 0.0206,-0.0165 c 0.004,-0.004 0.0103,-0.005 0.0146,-0.01 l 9.64036,-9.64001 0.521,0.521 a 0.74373282,0.74373282 0 0 0 1.0518,-1.05179 l -0.521,-0.521 1.04435,-1.04435 a 0.74354687,0.74354687 0 0 0 0,-1.05182 z"
         inkscape:connector-curvature="0" />
      <path
         style="stroke-width:0.74381465"
         id="path1675"
         d="m 193.12031,108.18911 a 0.74069806,0.74069806 0 0 1 1.04878,0 l 3.65957,3.65957 1.56945,-1.56202 -6.2778,-6.27779 -3.52568,3.52568 1.57689,2.60335 z"
         inkscape:connector-curvature="0" />
      <path
         style="stroke-width:0.74381465"
         id="path1677"
         d="m 191.81923,103.20493 c 0.011,-0.01 0.0251,-0.0132 0.0357,-0.0237 l 9.64047,-9.640533 0.52086,0.520819 a 0.74374439,0.74374439 0 0 0 1.05182,-1.051806 l -0.52086,-0.520767 1.04456,-1.044591 a 0.74373527,0.74373527 0 0 0 -1.05181,-1.051791 l -1.04467,1.044673 -0.52106,-0.52099 a 0.74373282,0.74373282 0 0 0 -1.05175,1.051836 l 0.52104,0.520953 -9.64042,9.640397 c -0.008,0.008 -0.0103,0.0185 -0.0177,0.0267 l -0.0825,0.0825 -3.8604,3.86033 1.04134,1.04145 3.89015,-3.89019 z"
         inkscape:connector-curvature="0" />
      <polygon
         transform="matrix(0.74381464,0,0,0.74381464,185.35489,90.173917)"
         id="polygon1679"
         points="15.36,30.56 11.14,26.34 8.88,28.6 12.06,33.86 " />
      <path
         style="stroke-width:0.74381465"
         id="path1681"
         d="m 219.81582,100.3418 a 0.73475498,0.73475498 0 0 1 0.21571,0.60998 l -0.20083,1.77772 1.94879,-2.25376 2.72236,-4.834793 -4.81991,2.7298 -2.25376,1.956163 1.78515,-0.20075 a 0.72774081,0.72774081 0 0 1 0.60249,0.21564 z"
         inkscape:connector-curvature="0" />
      <polygon
         transform="matrix(0.74381464,0,0,0.74381464,185.35489,90.173917)"
         id="polygon1683"
         points="44.04,19.54 44.49,15.51 40.46,15.96 38.05,18.05 41.95,21.95 " />
      <polygon
         transform="matrix(0.74381464,0,0,0.74381464,185.35489,90.173917)"
         id="polygon1685"
         points="7.62,38.31 6.22,39.71 9.74,43.22 11.14,41.82 10.13,40.82 " />
      <path
         style="stroke-width:0.74381465"
         id="path1687"
         d="m 198.66917,122.11327 a 0.83343687,0.83343687 0 0 0 0.98928,0.18596 l 5.50422,-3.12402 3.11659,-3.11654 7.30426,-8.42742 -3.05708,-3.05708 -8.42742,7.30421 -3.42155,3.41416 -2.84137,5.19926 a 0.84567262,0.84567262 0 0 0 0.19339,0.98184 z m 8.06295,-10.91171 a 2.234739,2.234739 0 0 1 2.22401,2.224 0.743815,0.743815 0 0 1 -1.48763,0 0.73648807,0.73648807 0 0 0 -0.73638,-0.73637 0.743815,0.743815 0 0 1 0,-1.48763 z m -4.71578,4.84223 a 0.74069806,0.74069806 0 0 1 1.04878,0 l 1.04878,1.04871 a 0.74075012,0.74075012 0 0 1 0,1.04878 0.74513863,0.74513863 0 0 1 -1.04878,0 l -1.04878,-1.04878 a 0.74063855,0.74063855 0 0 1 0,-1.04871 z"
         inkscape:connector-curvature="0" />
      <path
         style="stroke-width:0.74381465"
         id="path1689"
         d="m 209.34291,119.19013 a 0.74976516,0.74976516 0 0 0 0,-1.05622 l -0.52067,-0.51328 -8.36791,8.36789 1.04134,1.04141 5.22901,-5.22901 z"
         inkscape:connector-curvature="0" />
      <polygon
         transform="matrix(0.74381464,0,0,0.74381464,185.35489,90.173917)"
         id="polygon1691"
         points="21.69,52.38 18.18,48.86 16.78,50.26 20.29,53.78 " />
      <path
         style="stroke-width:0.74381465"
         id="path1693"
         d="m 202.02378,110.81477 a 0.77877393,0.77877393 0 0 0 -1.05622,0 l -7.83981,7.84725 0.44629,0.44617 0.59505,0.59506 8.36792,-8.36781 z"
         inkscape:connector-curvature="0" />
      <path
         style="stroke-width:0.74381465"
         id="path1695"
         d="m 209.87102,120.75957 -1.56201,1.56945 3.65957,3.65951 a 0.74094352,0.74094352 0 0 1 0,1.0489 l -1.9488,1.94868 2.60335,1.57694 3.52572,-3.52568 z"
         inkscape:connector-curvature="0" />
      <polygon
         transform="matrix(0.74381464,0,0,0.74381464,185.35489,90.173917)"
         id="polygon1697"
         points="31.4,51.12 33.66,48.86 29.44,44.64 26.14,47.94 " />
    </g>
  </g>
</svg>
