M48
;GenerationSoftware,Autodesk,EAGLE,9.6.2*%
;CreationDate,2020-09-19T23:05:18Z*%
FMAT,2
ICI,OFF
METRIC,TZ,000.000
T1C1.016
%
G90
M71
T1
X22860Y8890
X22860Y11430
X22860Y13970
X22860Y16510
X22860Y19050
X5080Y24130
X7620Y24130
X15240Y24130
X17780Y24130
X20320Y24130
X22860Y24130
X25400Y24130
X27940Y24130
X30480Y24130
X33020Y24130
X35560Y24130
X38100Y24130
X40640Y24130
X43180Y24130
X5080Y3810
X7620Y3810
X10160Y3810
X12700Y3810
X15240Y3810
X17780Y3810
X20320Y3810
X22860Y3810
X25400Y3810
X27940Y3810
X30480Y3810
X33020Y3810
X35560Y3810
X38100Y3810
X40640Y3810
X43180Y3810
X36830Y17780
X36830Y15240
X36830Y12700
X36830Y10160
X69850Y3810
X69850Y6350
X69850Y8890
X69850Y11430
X69850Y13970
X69850Y16510
X69850Y19050
X69850Y21590
X69850Y24130
X69850Y26670
X69850Y29210
X49530Y3810
X49530Y6350
X49530Y8890
X49530Y11430
X49530Y13970
X49530Y16510
X49530Y19050
X49530Y21590
X49530Y24130
X49530Y26670
X49530Y29210
M30