G04 EAGLE Gerber RS-274X export*
G75*
%MOMM*%
%FSLAX34Y34*%
%LPD*%
%INBottom Copper*%
%IPPOS*%
%AMOC8*
5,1,8,0,0,1.08239X$1,22.5*%
G01*
%ADD10C,1.524000*%
%ADD11C,0.635000*%
%ADD12C,0.152400*%


D10*
X236220Y88900D02*
X220980Y88900D01*
X220980Y114300D02*
X236220Y114300D01*
X236220Y139700D02*
X220980Y139700D01*
X220980Y165100D02*
X236220Y165100D01*
X236220Y190500D02*
X220980Y190500D01*
X50800Y233680D02*
X50800Y248920D01*
X76200Y248920D02*
X76200Y233680D01*
X152400Y233680D02*
X152400Y248920D01*
X177800Y248920D02*
X177800Y233680D01*
X203200Y233680D02*
X203200Y248920D01*
X228600Y248920D02*
X228600Y233680D01*
X254000Y233680D02*
X254000Y248920D01*
X279400Y248920D02*
X279400Y233680D01*
X304800Y233680D02*
X304800Y248920D01*
X330200Y248920D02*
X330200Y233680D01*
X355600Y233680D02*
X355600Y248920D01*
X381000Y248920D02*
X381000Y233680D01*
X406400Y233680D02*
X406400Y248920D01*
X431800Y248920D02*
X431800Y233680D01*
X50800Y45720D02*
X50800Y30480D01*
X76200Y30480D02*
X76200Y45720D01*
X101600Y45720D02*
X101600Y30480D01*
X127000Y30480D02*
X127000Y45720D01*
X152400Y45720D02*
X152400Y30480D01*
X177800Y30480D02*
X177800Y45720D01*
X203200Y45720D02*
X203200Y30480D01*
X228600Y30480D02*
X228600Y45720D01*
X254000Y45720D02*
X254000Y30480D01*
X279400Y30480D02*
X279400Y45720D01*
X304800Y45720D02*
X304800Y30480D01*
X330200Y30480D02*
X330200Y45720D01*
X355600Y45720D02*
X355600Y30480D01*
X381000Y30480D02*
X381000Y45720D01*
X406400Y45720D02*
X406400Y30480D01*
X431800Y30480D02*
X431800Y45720D01*
X375920Y177800D02*
X360680Y177800D01*
X360680Y152400D02*
X375920Y152400D01*
X375920Y127000D02*
X360680Y127000D01*
X360680Y101600D02*
X375920Y101600D01*
X690880Y38100D02*
X706120Y38100D01*
X706120Y63500D02*
X690880Y63500D01*
X690880Y88900D02*
X706120Y88900D01*
X706120Y114300D02*
X690880Y114300D01*
X690880Y139700D02*
X706120Y139700D01*
X706120Y165100D02*
X690880Y165100D01*
X690880Y190500D02*
X706120Y190500D01*
X706120Y215900D02*
X690880Y215900D01*
X690880Y241300D02*
X706120Y241300D01*
X706120Y266700D02*
X690880Y266700D01*
X690880Y292100D02*
X706120Y292100D01*
X502920Y38100D02*
X487680Y38100D01*
X487680Y63500D02*
X502920Y63500D01*
X502920Y88900D02*
X487680Y88900D01*
X487680Y114300D02*
X502920Y114300D01*
X502920Y139700D02*
X487680Y139700D01*
X487680Y165100D02*
X502920Y165100D01*
X502920Y190500D02*
X487680Y190500D01*
X487680Y215900D02*
X502920Y215900D01*
X502920Y241300D02*
X487680Y241300D01*
X487680Y266700D02*
X502920Y266700D01*
X502920Y292100D02*
X487680Y292100D01*
D11*
X368046Y177546D02*
X247650Y177546D01*
X235458Y165354D01*
X228600Y165354D01*
X368046Y177546D02*
X368300Y177800D01*
X228600Y165354D02*
X228600Y165100D01*
X406146Y64008D02*
X495300Y64008D01*
X406146Y64008D02*
X368808Y101346D01*
X495300Y64008D02*
X495300Y63500D01*
X368808Y101346D02*
X368300Y101600D01*
X127254Y240792D02*
X76200Y240792D01*
X127254Y240792D02*
X177546Y190500D01*
X228600Y190500D01*
X76200Y240792D02*
X76200Y241300D01*
X127254Y137922D02*
X127254Y38100D01*
X127254Y137922D02*
X176784Y187452D01*
X127254Y38100D02*
X127000Y38100D01*
X176784Y187452D02*
X177546Y190500D01*
D12*
X228600Y117348D02*
X228600Y114300D01*
X228600Y117348D02*
X211074Y134874D01*
X211074Y169926D01*
X221742Y180594D01*
X242316Y180594D01*
X284988Y223266D01*
X454914Y223266D01*
X488442Y256794D01*
X662940Y256794D01*
X697992Y291846D01*
X698500Y292100D01*
X282702Y89154D02*
X228600Y89154D01*
X282702Y89154D02*
X361188Y167640D01*
X422148Y167640D01*
X495300Y240792D01*
X228600Y89154D02*
X228600Y88900D01*
X495300Y240792D02*
X495300Y241300D01*
M02*
